<?xml version="1.0" encoding="UTF-8"?>
<!-- Generator: visioncortex VTracer 0.6.4 -->
<svg version="1.1" xmlns="http://www.w3.org/2000/svg" width="374" height="84">
<path d="M0 0 C0.309 9.594 -0.574 18.802 -6 27 C-9.188 30 -9.188 30 -12 30 C-11.67 30.66 -11.34 31.32 -11 32 C-10.96 34 -10.957 36 -11 38 C-14.378 38.845 -16.675 39.108 -20 38 C-23.472 43.485 -23.362 48.115 -23.188 54.375 C-23.174 55.302 -23.16 56.229 -23.146 57.184 C-23.111 59.456 -23.062 61.728 -23 64 C-21.35 64.66 -19.7 65.32 -18 66 C-18 66.66 -18 67.32 -18 68 C-23.94 68 -29.88 68 -36 68 C-36 67.34 -36 66.68 -36 66 C-34.02 65.01 -34.02 65.01 -32 64 C-32 55.09 -32 46.18 -32 37 C-33.32 36.34 -34.64 35.68 -36 35 C-36 34.01 -36 33.02 -36 32 C-31.591 30.898 -27.516 30.923 -23 31 C-23.156 30.457 -23.312 29.915 -23.473 29.355 C-24.971 22.662 -25.188 16.019 -21.5 10.062 C-15.745 2.513 -9.129 -0.147 0 0 Z M-24 34 C-23.67 34.66 -23.34 35.32 -23 36 C-22.67 35.34 -22.34 34.68 -22 34 C-22.66 34 -23.32 34 -24 34 Z " fill="#AABD00" transform="translate(76,0)"/>
<path d="M0 0 C1 1 1 1 1.062 4.062 C1.042 5.032 1.021 6.001 1 7 C-4.75 8 -4.75 8 -7 8 C-6.67 8.99 -6.34 9.98 -6 11 C-4.564 16.103 -4.037 20.834 -6.25 25.812 C-8.728 28.911 -10.688 30.747 -14.656 31.512 C-15.595 31.57 -16.533 31.628 -17.5 31.688 C-18.438 31.753 -19.377 31.819 -20.344 31.887 C-22.561 31.981 -24.781 32 -27 32 C-26.67 32.99 -26.34 33.98 -26 35 C-24.03 35.056 -24.03 35.056 -22.02 35.113 C-20.284 35.179 -18.548 35.245 -16.812 35.312 C-15.516 35.346 -15.516 35.346 -14.193 35.381 C-8.1 35.638 -4.429 36.571 0 41 C0.92 45.841 0.505 49.197 -2.125 53.375 C-7.335 58.132 -11.968 59.538 -18.938 59.438 C-19.998 59.43 -19.998 59.43 -21.08 59.423 C-26.543 59.268 -29.819 58.467 -34 55 C-35.582 51.836 -35.437 48.448 -35 45 C-34.484 44.505 -33.969 44.01 -33.438 43.5 C-32.963 43.005 -32.489 42.51 -32 42 C-32.228 40.013 -32.467 38.024 -32.816 36.055 C-33 34 -33 34 -31.875 30.812 C-31.586 29.884 -31.297 28.956 -31 28 C-31.974 26.318 -32.977 24.653 -34 23 C-34.529 17.446 -34.289 13.714 -31 9 C-25.863 5.147 -20.152 5.517 -14 6 C-12.658 6.296 -11.32 6.616 -10 7 C-9.897 6.402 -9.794 5.804 -9.688 5.188 C-8.032 -0.08 -5.218 -0.454 0 0 Z M-24.695 11.18 C-27.343 14.874 -26.569 19.676 -26 24 C-24.681 26.906 -24.681 26.906 -22 28 C-16.943 27.857 -16.943 27.857 -13 25 C-11.637 20.118 -12.274 16.723 -14 12 C-15.937 9.636 -15.937 9.636 -19.438 9.688 C-22.854 9.69 -22.854 9.69 -24.695 11.18 Z M-27.871 43.332 C-29.663 45.979 -29.444 47.894 -29 51 C-26.768 53.848 -25.45 54.85 -22 56 C-15.857 56.464 -12.065 55.248 -7.125 51.625 C-5.531 49.323 -5.65 47.733 -6 45 C-9.675 41.325 -14.647 41.819 -19.625 41.75 C-20.752 41.724 -21.878 41.698 -23.039 41.672 C-25.976 41.754 -25.976 41.754 -27.871 43.332 Z " fill="#4C6921" transform="translate(35,25)"/>
<path d="M0 0 C0.33 7.26 0.66 14.52 1 22 C2.65 20.35 4.3 18.7 6 17 C9.701 15.605 13.104 15.747 16.875 16.812 C19 18 19 18 21 20 C21.319 22.889 21.319 22.889 21.414 26.539 C21.472 28.492 21.472 28.492 21.531 30.484 C21.563 31.865 21.594 33.245 21.625 34.625 C21.663 36.013 21.702 37.401 21.742 38.789 C21.837 42.193 21.922 45.596 22 49 C23.65 49.33 25.3 49.66 27 50 C27 50.66 27 51.32 27 52 C20.73 52 14.46 52 8 52 C8 51.34 8 50.68 8 50 C9.65 49.34 11.3 48.68 13 48 C13 39.75 13 31.5 13 23 C11.35 22.67 9.7 22.34 8 22 C4.796 24.608 2.414 27.117 1 31 C0.762 33.921 0.812 36.821 0.875 39.75 C0.889 40.939 0.889 40.939 0.902 42.152 C0.926 44.102 0.962 46.051 1 48 C2.65 48.66 4.3 49.32 6 50 C6 50.66 6 51.32 6 52 C-0.27 52 -6.54 52 -13 52 C-13 51.34 -13 50.68 -13 50 C-10.525 49.505 -10.525 49.505 -8 49 C-7.975 43.216 -7.957 37.432 -7.945 31.648 C-7.94 29.68 -7.933 27.712 -7.925 25.743 C-7.912 22.916 -7.907 20.089 -7.902 17.262 C-7.897 16.38 -7.892 15.499 -7.887 14.591 C-7.887 13.36 -7.887 13.36 -7.886 12.104 C-7.884 11.383 -7.882 10.661 -7.88 9.917 C-7.932 7.778 -7.932 7.778 -9 5 C-11.015 4.267 -11.015 4.267 -13 4 C-13 3.01 -13 2.02 -13 1 C-8.395 -0.151 -5.06 0 0 0 Z " fill="#AABC00" transform="translate(347,16)"/>
<path d="M0 0 C0.33 7.26 0.66 14.52 1 22 C2.65 20.35 4.3 18.7 6 17 C9.701 15.605 13.104 15.747 16.875 16.812 C19 18 19 18 21 20 C21.319 22.889 21.319 22.889 21.414 26.539 C21.472 28.492 21.472 28.492 21.531 30.484 C21.563 31.865 21.594 33.245 21.625 34.625 C21.663 36.013 21.702 37.401 21.742 38.789 C21.837 42.193 21.922 45.596 22 49 C23.65 49.33 25.3 49.66 27 50 C27 50.66 27 51.32 27 52 C20.73 52 14.46 52 8 52 C8 51.34 8 50.68 8 50 C9.65 49.34 11.3 48.68 13 48 C13 39.75 13 31.5 13 23 C11.35 22.67 9.7 22.34 8 22 C4.796 24.608 2.414 27.117 1 31 C0.762 33.921 0.812 36.821 0.875 39.75 C0.889 40.939 0.889 40.939 0.902 42.152 C0.926 44.102 0.962 46.051 1 48 C2.65 48.66 4.3 49.32 6 50 C6 50.66 6 51.32 6 52 C-0.27 52 -6.54 52 -13 52 C-13 51.34 -13 50.68 -13 50 C-10.525 49.505 -10.525 49.505 -8 49 C-7.975 43.216 -7.957 37.432 -7.945 31.648 C-7.94 29.68 -7.933 27.712 -7.925 25.743 C-7.912 22.916 -7.907 20.089 -7.902 17.262 C-7.897 16.38 -7.892 15.499 -7.887 14.591 C-7.887 13.36 -7.887 13.36 -7.886 12.104 C-7.884 11.383 -7.882 10.661 -7.88 9.917 C-7.932 7.778 -7.932 7.778 -9 5 C-11.015 4.267 -11.015 4.267 -13 4 C-13 3.01 -13 2.02 -13 1 C-8.395 -0.151 -5.06 0 0 0 Z " fill="#AABC00" transform="translate(190,16)"/>
<path d="M0 0 C0.33 1.65 0.66 3.3 1 5 C1.784 4.175 2.567 3.35 3.375 2.5 C6.96 -0.496 10.088 -0.559 14.633 -0.566 C17.833 0.199 18.943 1.452 21 4 C21.514 6.777 21.514 6.777 21.539 9.938 C21.562 11.08 21.585 12.222 21.609 13.398 C21.617 15.181 21.617 15.181 21.625 17 C21.651 19.354 21.684 21.708 21.727 24.062 C21.733 25.105 21.738 26.148 21.745 27.223 C22.004 30.039 22.396 31.682 24 34 C24.99 34.33 25.98 34.66 27 35 C27 35.66 27 36.32 27 37 C20.73 37 14.46 37 8 37 C8 36.34 8 35.68 8 35 C9.65 34.34 11.3 33.68 13 33 C13 24.09 13 15.18 13 6 C11.68 5.67 10.36 5.34 9 5 C4.714 7.613 2.828 10.384 1 15 C0.656 18.138 0.714 21.223 0.812 24.375 C0.826 25.206 0.84 26.038 0.854 26.895 C0.889 28.93 0.942 30.965 1 33 C2.65 33.66 4.3 34.32 6 35 C6 35.66 6 36.32 6 37 C-0.27 37 -6.54 37 -13 37 C-13 36.34 -13 35.68 -13 35 C-12.361 34.732 -11.721 34.464 -11.062 34.188 C-8.669 33.113 -8.669 33.113 -8 30 C-7.917 28.081 -7.893 26.159 -7.902 24.238 C-7.906 23.12 -7.909 22.002 -7.912 20.85 C-7.92 19.682 -7.929 18.515 -7.938 17.312 C-7.942 16.134 -7.947 14.955 -7.951 13.74 C-7.963 10.827 -7.979 7.913 -8 5 C-9.65 4.67 -11.3 4.34 -13 4 C-13 3.01 -13 2.02 -13 1 C-8.591 -0.102 -4.516 -0.077 0 0 Z " fill="#4B681F" transform="translate(149,31)"/>
<path d="M0 0 C2.699 1.812 4.541 3.081 6 6 C6.154 8.031 6.25 10.066 6.316 12.102 C6.358 13.313 6.4 14.525 6.443 15.773 C6.483 17.044 6.522 18.315 6.562 19.625 C6.606 20.904 6.649 22.183 6.693 23.5 C6.8 26.667 6.902 29.833 7 33 C8.32 33.33 9.64 33.66 11 34 C11 34.99 11 35.98 11 37 C9.376 37.081 7.75 37.139 6.125 37.188 C5.22 37.222 4.315 37.257 3.383 37.293 C2.203 37.148 2.203 37.148 1 37 C0.34 36.01 -0.32 35.02 -1 34 C-1.619 34.495 -2.238 34.99 -2.875 35.5 C-7.286 37.617 -11.189 37.69 -16 37 C-18.625 35.625 -18.625 35.625 -20 33 C-20.658 29.517 -20.727 26.476 -20 23 C-15.943 18.006 -11.264 16.763 -5 16 C-3.68 16 -2.36 16 -1 16 C-1.114 14.374 -1.242 12.749 -1.375 11.125 C-1.445 10.22 -1.514 9.315 -1.586 8.383 C-1.796 5.821 -1.796 5.821 -4 4 C-7.583 3.833 -7.583 3.833 -11 4 C-11.144 4.969 -11.289 5.939 -11.438 6.938 C-12 10 -12 10 -13 11 C-15.5 11.125 -15.5 11.125 -18 11 C-19 10 -19 10 -19.438 7.188 C-19 4 -19 4 -16.812 1.625 C-11.866 -1.192 -5.453 -0.928 0 0 Z M-11 23 C-13.296 25.759 -13.296 25.759 -12.75 28.562 C-12.162 31.15 -12.162 31.15 -10 33 C-7.586 33.584 -7.586 33.584 -5 33 C-2.496 30.834 -1.144 29.237 -0.754 25.887 C-0.75 23.923 -0.867 21.959 -1 20 C-5.272 19.634 -7.546 20.479 -11 23 Z " fill="#ABBD00" transform="translate(274,31)"/>
<path d="M0 0 C1.103 -0.008 2.207 -0.015 3.344 -0.023 C7.613 0.515 10.203 2.167 13.312 5.062 C14.5 7.375 14.5 7.375 14.5 15.375 C6.91 15.375 -0.68 15.375 -8.5 15.375 C-5.228 25.761 -5.228 25.761 2.812 32.688 C6.47 33.623 9.728 33.503 13.5 33.375 C13.17 34.695 12.84 36.015 12.5 37.375 C9.958 37.457 7.418 37.516 4.875 37.562 C4.162 37.588 3.449 37.613 2.715 37.639 C-2.815 37.715 -6.914 36.733 -11.145 32.875 C-15.146 27.736 -15.726 23.914 -15.812 17.562 C-15.856 16.514 -15.856 16.514 -15.9 15.443 C-15.963 10.309 -14.946 7.396 -11.5 3.375 C-7.704 0.376 -4.783 -0.034 0 0 Z M-7.5 8.375 C-7.83 9.365 -8.16 10.355 -8.5 11.375 C-3.55 11.375 1.4 11.375 6.5 11.375 C5.761 6.346 5.761 6.346 2.5 3.375 C-2.485 2.326 -4.411 4.685 -7.5 8.375 Z " fill="#AABD00" transform="translate(235.5,30.625)"/>
<path d="M0 0 C1.103 -0.008 2.207 -0.015 3.344 -0.023 C7.613 0.515 10.203 2.167 13.312 5.062 C14.5 7.375 14.5 7.375 14.5 15.375 C6.91 15.375 -0.68 15.375 -8.5 15.375 C-5.228 25.761 -5.228 25.761 2.812 32.688 C6.47 33.623 9.728 33.503 13.5 33.375 C13.17 34.695 12.84 36.015 12.5 37.375 C9.958 37.457 7.418 37.516 4.875 37.562 C4.162 37.588 3.449 37.613 2.715 37.639 C-2.815 37.715 -6.914 36.733 -11.145 32.875 C-15.146 27.736 -15.726 23.914 -15.812 17.562 C-15.856 16.514 -15.856 16.514 -15.9 15.443 C-15.963 10.309 -14.946 7.396 -11.5 3.375 C-7.704 0.376 -4.783 -0.034 0 0 Z M-7.5 8.375 C-7.83 9.365 -8.16 10.355 -8.5 11.375 C-3.55 11.375 1.4 11.375 6.5 11.375 C5.761 6.346 5.761 6.346 2.5 3.375 C-2.485 2.326 -4.411 4.685 -7.5 8.375 Z " fill="#4B681F" transform="translate(115.5,30.625)"/>
<path d="M0 0 C1.103 -0.008 2.207 -0.015 3.344 -0.023 C7.613 0.515 10.203 2.167 13.312 5.062 C14.5 7.375 14.5 7.375 14.5 15.375 C6.91 15.375 -0.68 15.375 -8.5 15.375 C-5.228 25.761 -5.228 25.761 2.812 32.688 C6.47 33.623 9.728 33.503 13.5 33.375 C13.17 34.695 12.84 36.015 12.5 37.375 C9.958 37.457 7.418 37.516 4.875 37.562 C4.162 37.588 3.449 37.613 2.715 37.639 C-2.815 37.715 -6.914 36.733 -11.145 32.875 C-15.146 27.736 -15.726 23.914 -15.812 17.562 C-15.856 16.514 -15.856 16.514 -15.9 15.443 C-15.963 10.309 -14.946 7.396 -11.5 3.375 C-7.704 0.376 -4.783 -0.034 0 0 Z M-7.5 8.375 C-7.83 9.365 -8.16 10.355 -8.5 11.375 C-3.55 11.375 1.4 11.375 6.5 11.375 C5.761 6.346 5.761 6.346 2.5 3.375 C-2.485 2.326 -4.411 4.685 -7.5 8.375 Z " fill="#4B681F" transform="translate(81.5,30.625)"/>
<path d="M0 0 C0 16.17 0 32.34 0 49 C1.65 49.33 3.3 49.66 5 50 C5 50.66 5 51.32 5 52 C-0.94 52 -6.88 52 -13 52 C-13 51.34 -13 50.68 -13 50 C-10.525 49.505 -10.525 49.505 -8 49 C-8.33 34.48 -8.66 19.96 -9 5 C-10.32 4.67 -11.64 4.34 -13 4 C-13 3.01 -13 2.02 -13 1 C-8.395 -0.151 -5.06 0 0 0 Z " fill="#ABBD00" transform="translate(303,16)"/>
<path d="M0 0 C0.33 1.32 0.66 2.64 1 4 C1.516 3.34 2.031 2.68 2.562 2 C5.816 -0.67 7.901 -0.387 12 0 C13 1 13 1 13.062 4.062 C13.042 5.032 13.021 6.001 13 7 C9.622 7.845 7.325 8.108 4 7 C0.528 12.485 0.638 17.115 0.812 23.375 C0.826 24.302 0.84 25.229 0.854 26.184 C0.889 28.456 0.938 30.728 1 33 C2.65 33.66 4.3 34.32 6 35 C6 35.66 6 36.32 6 37 C0.06 37 -5.88 37 -12 37 C-12 36.34 -12 35.68 -12 35 C-10.68 34.34 -9.36 33.68 -8 33 C-8 24.09 -8 15.18 -8 6 C-9.32 5.34 -10.64 4.68 -12 4 C-12 3.01 -12 2.02 -12 1 C-7.947 0.018 -4.161 -0.082 0 0 Z " fill="#683C11" transform="translate(52,31)"/>
<path d="M0 0 C0.99 0 1.98 0 3 0 C3 3.63 3 7.26 3 11 C6.3 11 9.6 11 13 11 C13 11.99 13 12.98 13 14 C9.7 14 6.4 14 3 14 C3.11 18.271 3.24 22.542 3.375 26.812 C3.406 28.027 3.437 29.242 3.469 30.494 C3.507 31.658 3.546 32.821 3.586 34.02 C3.617 35.093 3.649 36.167 3.681 37.273 C3.816 40.216 3.816 40.216 6 43 C9.568 43.736 9.568 43.736 13 44 C13 44.99 13 45.98 13 47 C10.918 47.135 8.834 47.232 6.75 47.312 C5.59 47.371 4.43 47.429 3.234 47.488 C0 47 0 47 -2.178 44.883 C-4.376 41.405 -4.465 39.471 -4.391 35.387 C-4.378 34.14 -4.365 32.892 -4.352 31.607 C-4.318 30.314 -4.285 29.02 -4.25 27.688 C-4.232 26.375 -4.214 25.062 -4.195 23.709 C-4.148 20.472 -4.082 17.236 -4 14 C-5.98 14 -7.96 14 -10 14 C-10 13.01 -10 12.02 -10 11 C-8.907 10.67 -7.814 10.34 -6.688 10 C-4.213 8.973 -3.212 8.371 -1.867 6.02 C-1.148 4.046 -0.564 2.024 0 0 Z " fill="#AABC00" transform="translate(319,21)"/>
<path d="M0 0 C2.375 -0.188 2.375 -0.188 5 0 C5.66 0.99 6.32 1.98 7 3 C7.33 2.01 7.66 1.02 8 0 C9.65 0 11.3 0 13 0 C13 2.97 13 5.94 13 9 C11.68 8.67 10.36 8.34 9 8 C6.902 8.399 6.902 8.399 5 9 C3.333 9 1.667 9 0 9 C0 6.03 0 3.06 0 0 Z " fill="#693D12" transform="translate(230,74)"/>
<path d="M0 0 C1.32 0 2.64 0 4 0 C7 5.625 7 5.625 7 9 C6.01 9 5.02 9 4 9 C4 8.34 4 7.68 4 7 C2.68 7 1.36 7 0 7 C0 7.66 0 8.32 0 9 C-0.99 9 -1.98 9 -3 9 C-2.443 5.656 -1.648 2.967 0 0 Z " fill="#6A3F14" transform="translate(306,74)"/>
<path d="M0 0 C1.32 0 2.64 0 4 0 C7 5.625 7 5.625 7 9 C6.01 9 5.02 9 4 9 C4 8.34 4 7.68 4 7 C2.68 7 1.36 7 0 7 C0 7.66 0 8.32 0 9 C-0.99 9 -1.98 9 -3 9 C-2.443 5.656 -1.648 2.967 0 0 Z " fill="#6A3F14" transform="translate(215,74)"/>
<path d="M0 0 C0.99 0 1.98 0 3 0 C3.33 0.99 3.66 1.98 4 3 C4.66 2.01 5.32 1.02 6 0 C6.66 0 7.32 0 8 0 C7.34 2.97 6.68 5.94 6 9 C4.68 9 3.36 9 2 9 C1.34 6.03 0.68 3.06 0 0 Z " fill="#6C4118" transform="translate(290,74)"/>
<path d="M0 0 C0.66 0 1.32 0 2 0 C2 0.99 2 1.98 2 3 C2.66 3 3.32 3 4 3 C4 2.01 4 1.02 4 0 C4.66 0 5.32 0 6 0 C6 2.97 6 5.94 6 9 C5.34 9 4.68 9 4 9 C4 8.01 4 7.02 4 6 C3.34 6 2.68 6 2 6 C2 6.99 2 7.98 2 9 C1.34 9 0.68 9 0 9 C0 6.03 0 3.06 0 0 Z " fill="#693D11" transform="translate(197,74)"/>
<path d="M0 0 C1.32 0.33 2.64 0.66 4 1 C5.32 0.67 6.64 0.34 8 0 C7.01 2.97 6.02 5.94 5 9 C4.34 9 3.68 9 3 9 C2.01 6.03 1.02 3.06 0 0 Z " fill="#6F431A" transform="translate(363,74)"/>
<path d="M0 0 C1.65 0 3.3 0 5 0 C5 2.97 5 5.94 5 9 C3.35 9 1.7 9 0 9 C0 6.03 0 3.06 0 0 Z " fill="#693E11" transform="translate(349,74)"/>
<path d="M0 0 C1.65 0 3.3 0 5 0 C5 2.97 5 5.94 5 9 C3.35 9 1.7 9 0 9 C0 6.03 0 3.06 0 0 Z " fill="#693E11" transform="translate(251,74)"/>
<path d="M0 0 C1.65 0 3.3 0 5 0 C5 3 5 6 5 9 C3.35 9 1.7 9 0 9 C0 6 0 3 0 0 Z " fill="#6A3E12" transform="translate(264,74)"/>
<path d="M0 0 C1.98 0 3.96 0 6 0 C6 0.66 6 1.32 6 2 C5.34 2 4.68 2 4 2 C4 4.31 4 6.62 4 9 C3.34 9 2.68 9 2 9 C2 6.69 2 4.38 2 2 C1.34 2 0.68 2 0 2 C0 1.34 0 0.68 0 0 Z " fill="#683C11" transform="translate(181,74)"/>
<path d="M0 0 C0.66 0 1.32 0 2 0 C2 2.31 2 4.62 2 7 C2.99 7 3.98 7 5 7 C5 7.66 5 8.32 5 9 C3.35 9 1.7 9 0 9 C0 6.03 0 3.06 0 0 Z " fill="#683C11" transform="translate(334,74)"/>
<path d="M0 0 C0.66 0 1.32 0 2 0 C2 2.31 2 4.62 2 7 C2.99 7 3.98 7 5 7 C5 7.66 5 8.32 5 9 C3.35 9 1.7 9 0 9 C0 6.03 0 3.06 0 0 Z " fill="#683C11" transform="translate(321,74)"/>
</svg>
