<?xml version="1.0" encoding="UTF-8"?>
<!-- Generator: visioncortex VTracer 0.6.4 -->
<svg version="1.1" xmlns="http://www.w3.org/2000/svg" width="400" height="148">
<path d="M0 0 C8.25 0 16.5 0 25 0 C25 11.88 25 23.76 25 36 C27.97 34.35 30.94 32.7 34 31 C43.954 27.146 54.246 27.064 64.312 30.625 C72.43 34.268 78.841 40.447 82.087 48.797 C83.029 52.101 83.242 54.762 83.227 58.189 C83.227 59.39 83.227 60.591 83.227 61.828 C83.216 63.109 83.206 64.391 83.195 65.711 C83.192 67.048 83.189 68.384 83.187 69.721 C83.179 73.223 83.16 76.724 83.137 80.226 C83.117 83.805 83.108 87.385 83.098 90.965 C83.076 97.977 83.041 104.988 83 112 C75.08 112 67.16 112 59 112 C58.963 108.712 58.925 105.423 58.887 102.035 C58.84 98.828 58.789 95.621 58.738 92.414 C58.704 90.196 58.676 87.978 58.654 85.76 C58.62 82.559 58.567 79.36 58.512 76.16 C58.505 75.179 58.499 74.197 58.492 73.186 C58.341 65.997 57.687 58.981 52.715 53.465 C47.722 50.771 42.509 51.438 37 52 C31.721 53.667 29.647 56.195 27 61 C26.074 63.957 25.853 66.679 25.795 69.769 C25.775 70.709 25.755 71.65 25.734 72.619 C25.718 73.627 25.701 74.634 25.684 75.672 C25.663 76.709 25.642 77.747 25.621 78.816 C25.555 82.127 25.496 85.439 25.438 88.75 C25.394 90.996 25.351 93.242 25.307 95.488 C25.199 100.992 25.1 106.496 25 112 C16.75 112 8.5 112 0 112 C0 75.04 0 38.08 0 0 Z " fill="#FFFFFF" transform="translate(317,0)"/>
<path d="M0 0 C0.66 0 1.32 0 2 0 C2.543 1.097 3.085 2.194 3.645 3.324 C4.367 4.779 5.09 6.233 5.812 7.688 C6.169 8.409 6.525 9.13 6.893 9.873 C8.426 12.955 9.927 15.89 11.824 18.77 C13 21 13 21 12.764 22.827 C11.822 25.505 10.497 27.621 8.945 30 C7.998 31.456 7.998 31.456 7.032 32.941 C3.001 39.008 -1.088 45.037 -5.215 51.039 C-12.389 61.657 -17.824 70.853 -16 84 C-14.746 88.462 -12.292 91.134 -8.312 93.438 C-2.435 95.972 2.705 95.689 8.75 93.875 C13.706 91.016 16.274 87.9 18.312 82.562 C20.537 71.037 16.595 62.463 10.816 52.664 C9.104 49.936 9.104 49.936 6.715 47.898 C6.149 47.272 5.583 46.645 5 46 C5.403 42.958 6.576 40.838 8.285 38.328 C8.733 37.664 9.181 37 9.643 36.316 C10.111 35.634 10.58 34.953 11.062 34.25 C11.535 33.553 12.007 32.855 12.494 32.137 C13.658 30.421 14.828 28.71 16 27 C22.572 28.438 25.564 33.786 29.09 39.223 C37.608 53.271 42.308 68.071 38.688 84.488 C35.582 95.833 29.018 104.794 19 111 C7.57 116.514 -4.198 117.392 -16.258 113.219 C-18.307 112.287 -20.122 111.24 -22 110 C-22.666 109.563 -23.333 109.126 -24.02 108.676 C-32.307 102.385 -36.625 91.891 -39 82 C-40.848 64.913 -33.182 53.262 -23.68 39.934 C-14.582 27.161 -6.779 14.146 0 0 Z " fill="#EE4136" transform="translate(110,0)"/>
<path d="M0 0 C3.272 3.259 5.887 6.909 8.016 11.008 C8.016 11.668 8.016 12.328 8.016 13.008 C5.273 14.521 2.52 16.016 -0.234 17.508 C-1.012 17.937 -1.789 18.366 -2.59 18.809 C-3.344 19.215 -4.098 19.621 -4.875 20.039 C-5.566 20.416 -6.258 20.793 -6.97 21.182 C-8.984 22.008 -8.984 22.008 -12.984 22.008 C-13.418 21.265 -13.851 20.523 -14.297 19.758 C-16.545 16.094 -18.951 14.286 -22.984 13.008 C-29.635 12.262 -36.419 11.834 -41.984 16.008 C-46.971 20.994 -48.653 25.434 -49.297 32.383 C-48.726 39.008 -46.931 45.336 -41.984 50.008 C-36.175 53.446 -30.645 53.724 -23.984 53.008 C-18.405 51.218 -15.463 47.51 -11.984 43.008 C-7.491 44.666 -3.373 46.858 0.828 49.133 C1.521 49.505 2.214 49.878 2.928 50.262 C4.625 51.175 6.32 52.091 8.016 53.008 C4.576 62.595 -3.165 68.692 -12.113 73.043 C-23.32 77.233 -38.048 76.342 -49.121 72.332 C-59.897 67.348 -68.692 59.216 -72.984 48.008 C-76.428 37.678 -76.647 25.033 -71.984 15.008 C-70.225 11.788 -68.249 8.892 -65.984 6.008 C-65.505 5.39 -65.025 4.773 -64.531 4.137 C-57.566 -3.761 -46.433 -8.606 -36.117 -9.844 C-22.616 -10.483 -10.612 -8.818 0 0 Z " fill="#FFFFFF" transform="translate(297.984375,37.9921875)"/>
<path d="M0 0 C1.563 0.008 1.563 0.008 3.158 0.016 C4.283 0.019 5.407 0.022 6.566 0.026 C7.75 0.034 8.934 0.042 10.154 0.051 C11.342 0.056 12.53 0.06 13.754 0.065 C16.7 0.077 19.646 0.094 22.592 0.114 C23.087 9.519 23.087 9.519 23.592 19.114 C29.47 19.074 29.47 19.074 35.349 19.023 C36.078 19.021 36.806 19.018 37.556 19.016 C38.305 19.011 39.054 19.005 39.826 19 C41.592 19.114 41.592 19.114 42.592 20.114 C42.678 21.529 42.699 22.949 42.689 24.367 C42.687 25.136 42.684 25.905 42.682 26.698 C42.673 27.681 42.663 28.663 42.654 29.676 C42.633 32.79 42.613 35.905 42.592 39.114 C35.992 39.114 29.392 39.114 22.592 39.114 C22.688 44.328 22.791 49.542 22.909 54.757 C22.947 56.531 22.982 58.305 23.013 60.079 C23.059 62.629 23.117 65.178 23.177 67.727 C23.189 68.521 23.201 69.314 23.212 70.132 C23.315 73.957 23.422 75.859 25.592 79.114 C31.202 80.816 36.196 80.065 41.592 78.114 C42.412 79.985 43.223 81.861 44.029 83.739 C44.482 84.783 44.934 85.827 45.4 86.903 C46.55 90 47.165 92.846 47.592 96.114 C42.091 100.954 35.364 101.504 28.342 101.489 C27.599 101.487 26.857 101.485 26.093 101.484 C18.437 101.314 12.309 99.295 5.717 95.426 C-4.438 84.375 -3.689 70.583 -3.533 56.489 C-3.523 54.896 -3.514 53.304 -3.506 51.711 C-3.484 47.845 -3.45 43.979 -3.408 40.114 C-7.038 39.784 -10.668 39.454 -14.408 39.114 C-14.408 32.514 -14.408 25.914 -14.408 19.114 C-10.778 19.114 -7.148 19.114 -3.408 19.114 C-3.42 17.826 -3.432 16.538 -3.444 15.211 C-3.453 13.533 -3.462 11.854 -3.471 10.176 C-3.479 9.326 -3.488 8.476 -3.496 7.6 C-3.5 6.791 -3.503 5.982 -3.506 5.149 C-3.511 4.4 -3.517 3.651 -3.522 2.879 C-3.342 0.079 -2.799 0.132 0 0 Z " fill="#FFFFFF" transform="translate(14.408447265625,11.886474609375)"/>
<path d="M0 0 C0.029 3.646 0.047 7.292 0.062 10.938 C0.071 11.978 0.079 13.019 0.088 14.092 C0.091 15.081 0.094 16.071 0.098 17.09 C0.103 18.006 0.108 18.923 0.114 19.867 C0 22 0 22 -1 23 C-3.06 23.159 -5.124 23.277 -7.188 23.375 C-13.595 23.838 -17.717 24.59 -22.25 29.375 C-26.239 35.359 -26.331 40.536 -26.414 47.551 C-26.433 48.565 -26.453 49.579 -26.473 50.623 C-26.532 53.853 -26.579 57.083 -26.625 60.312 C-26.663 62.506 -26.702 64.699 -26.742 66.893 C-26.838 72.262 -26.923 77.631 -27 83 C-31.146 83.029 -35.292 83.047 -39.438 83.062 C-41.214 83.075 -41.214 83.075 -43.025 83.088 C-44.15 83.091 -45.275 83.094 -46.434 83.098 C-47.997 83.106 -47.997 83.106 -49.592 83.114 C-52 83 -52 83 -53 82 C-53.1 79.51 -53.136 77.049 -53.129 74.559 C-53.131 73.78 -53.133 73.001 -53.135 72.199 C-53.139 69.611 -53.136 67.025 -53.133 64.438 C-53.133 62.648 -53.134 60.858 -53.136 59.068 C-53.137 55.312 -53.135 51.556 -53.13 47.8 C-53.125 42.974 -53.128 38.148 -53.134 33.322 C-53.138 29.625 -53.136 25.928 -53.134 22.23 C-53.133 20.451 -53.134 18.671 -53.136 16.891 C-53.139 14.408 -53.135 11.925 -53.129 9.441 C-53.131 8.699 -53.133 7.956 -53.136 7.19 C-53.114 2.114 -53.114 2.114 -52 1 C-50.219 0.913 -48.435 0.893 -46.652 0.902 C-45.573 0.906 -44.493 0.909 -43.381 0.912 C-41.676 0.925 -41.676 0.925 -39.938 0.938 C-38.227 0.944 -38.227 0.944 -36.482 0.951 C-33.655 0.963 -30.827 0.979 -28 1 C-27.67 3.31 -27.34 5.62 -27 8 C-26.381 7.422 -25.762 6.845 -25.125 6.25 C-17.726 0.923 -9.029 -2.008 0 0 Z " fill="#FFFFFF" transform="translate(218,29)"/>
<path d="M0 0 C0.66 0 1.32 0 2 0 C2.543 1.097 3.085 2.194 3.645 3.324 C4.367 4.779 5.09 6.233 5.812 7.688 C6.169 8.409 6.525 9.13 6.893 9.873 C8.426 12.955 9.927 15.89 11.824 18.77 C13 21 13 21 12.764 22.827 C11.822 25.505 10.497 27.621 8.945 30 C7.998 31.456 7.998 31.456 7.032 32.941 C3.001 39.008 -1.088 45.037 -5.215 51.039 C-10.868 59.405 -16.478 67.815 -16.812 78.188 C-16.86 79.295 -16.908 80.402 -16.957 81.543 C-16.978 82.759 -16.978 82.759 -17 84 C-17.99 84 -18.98 84 -20 84 C-21.32 77.07 -22.64 70.14 -24 63 C-25.939 63.825 -27.877 64.65 -29.875 65.5 C-35.75 68 -35.75 68 -38 68 C-36.287 55.369 -27.723 45.548 -20.506 35.446 C-12.531 24.209 -5.95 12.416 0 0 Z " fill="#F79320" transform="translate(110,0)"/>
<path d="M0 0 C6.572 1.438 9.564 6.786 13.09 12.223 C17.755 19.918 23 28.797 23 38 C20.397 39.315 17.793 40.627 15.188 41.938 C14.081 42.497 14.081 42.497 12.951 43.068 C12.239 43.426 11.527 43.784 10.793 44.152 C10.138 44.482 9.484 44.812 8.809 45.152 C7 46 7 46 4 47 C3.792 46.273 3.585 45.546 3.371 44.797 C0.768 36.302 -2.588 27.049 -9.281 20.906 C-9.848 20.277 -10.416 19.648 -11 19 C-10.598 15.957 -9.424 13.838 -7.715 11.328 C-7.043 10.332 -7.043 10.332 -6.357 9.316 C-5.889 8.634 -5.42 7.953 -4.938 7.25 C-4.465 6.553 -3.993 5.855 -3.506 5.137 C-2.342 3.421 -1.172 1.71 0 0 Z " fill="#F79420" transform="translate(126,27)"/>
<path d="M0 0 C3.093 9.278 0.279 20.323 -3.816 28.844 C-7.805 36.111 -12.996 41.517 -20 46 C-20.66 46 -21.32 46 -22 46 C-22 41.38 -22 36.76 -22 32 C-23.98 31.01 -25.96 30.02 -28 29 C-27.403 28.343 -27.403 28.343 -26.793 27.672 C-23.258 23.44 -21.794 20.563 -21.125 15.062 C-20.244 10.676 -18.992 8.689 -15.367 6.23 C-4.91 0 -4.91 0 0 0 Z " fill="#EE4236" transform="translate(149,65)"/>
<path d="M0 0 C0.66 0 1.32 0 2 0 C3.297 2.539 4.587 5.081 5.875 7.625 C6.24 8.338 6.605 9.051 6.98 9.785 C9 13.788 10.708 17.689 12 22 C9.377 23.868 6.724 25.687 4.062 27.5 C3.327 28.025 2.592 28.549 1.834 29.09 C-3.726 32.829 -7.318 33.584 -14 33 C-14.124 34.052 -14.248 35.104 -14.375 36.188 C-15.152 39.085 -15.819 39.879 -18.359 41.578 C-20.877 42.815 -23.396 43.958 -26 45 C-24.272 41.199 -21.916 37.867 -19.562 34.438 C-15.496 28.423 -11.707 22.28 -8.062 16 C-7.602 15.212 -7.142 14.423 -6.668 13.611 C-4.118 9.172 -1.914 4.749 0 0 Z " fill="#FBAF40" transform="translate(110,0)"/>
<path d="M0 0 C0.639 0.165 1.279 0.33 1.938 0.5 C7.265 1.37 12.383 1.302 17.688 0.312 C21 0 21 0 27 3 C26.67 7.95 26.34 12.9 26 18 C19.596 20.376 13.813 21.588 7 22 C0 3.8 0 3.8 0 0 Z " fill="#BE1F2D" transform="translate(101,94)"/>
<path d="M0 0 C2.64 0 5.28 0 8 0 C8.33 0.66 8.66 1.32 9 2 C9.99 1.34 10.98 0.68 12 0 C18.453 0.453 18.453 0.453 21 3 C21.33 2.01 21.66 1.02 22 0 C36 0 36 0 42 1 C43 2 43 2 43.098 4.723 C43.086 5.825 43.074 6.927 43.062 8.062 C43.053 9.167 43.044 10.272 43.035 11.41 C43.024 12.265 43.012 13.119 43 14 C41.68 14 40.36 14 39 14 C38.505 9.545 38.505 9.545 38 5 C37.34 5 36.68 5 36 5 C35.67 7.97 35.34 10.94 35 14 C33.68 14 32.36 14 31 14 C30.505 9.05 30.505 9.05 30 4 C29.01 4.495 29.01 4.495 28 5 C27.533 7.126 27.533 7.126 27.375 9.562 C27.3 10.389 27.225 11.215 27.148 12.066 C27.099 12.704 27.05 13.343 27 14 C25.35 14 23.7 14 22 14 C21.67 13.01 21.34 12.02 21 11 C20.484 11.516 19.969 12.031 19.438 12.562 C15.984 14.599 13.81 13.917 10 13 C7.435 10.435 7.46 8.523 7 5 C6.01 5.495 6.01 5.495 5 6 C4.535 7.895 4.535 7.895 4.375 10.062 C4.189 12.012 4.189 12.012 4 14 C2.68 14 1.36 14 0 14 C0 9.38 0 4.76 0 0 Z M13 4 C12.67 5.65 12.34 7.3 12 9 C12.99 9.33 13.98 9.66 15 10 C15.66 9.67 16.32 9.34 17 9 C16.67 7.35 16.34 5.7 16 4 C15.01 4 14.02 4 13 4 Z " fill="#FFFFFF" transform="translate(190,131)"/>
<path d="M0 0 C5.47 0.916 7.854 4.711 11 9 C12.531 11.335 13.969 13.714 15.375 16.125 C15.721 16.71 16.067 17.296 16.423 17.899 C18.497 21.584 19.553 24.8 20 29 C18.627 29.342 17.251 29.673 15.875 30 C15.109 30.186 14.344 30.371 13.555 30.562 C10.665 31.057 7.926 31.068 5 31 C4.899 30.036 4.799 29.072 4.695 28.078 C3.898 20.71 3.898 20.71 -0.426 15.18 C-2.95 14.216 -5.344 13.488 -8 13 C-5.497 8.53 -2.889 4.231 0 0 Z " fill="#FBAF40" transform="translate(126,27)"/>
<path d="M0 0 C0.33 0.99 0.66 1.98 1 3 C1.825 2.319 2.65 1.639 3.5 0.938 C6.458 -1.049 7.018 -0.999 10.875 -0.688 C11.548 -0.555 12.221 -0.422 12.914 -0.285 C15.204 0.028 16.983 -0.216 19.25 -0.625 C23 -1 23 -1 25.219 0.121 C27 2 27 2 27.391 4.699 C27.344 5.685 27.298 6.671 27.25 7.688 C27.214 8.681 27.178 9.675 27.141 10.699 C27.094 11.458 27.048 12.218 27 13 C25.584 13.054 24.167 13.093 22.75 13.125 C21.961 13.148 21.172 13.171 20.359 13.195 C17.793 12.983 16.208 12.287 14 11 C13.01 11.66 12.02 12.32 11 13 C7.706 12.794 5.689 12.574 3.125 10.438 C2.754 9.963 2.382 9.489 2 9 C1.01 10.485 1.01 10.485 0 12 C-3.312 13 -3.312 13 -7 13 C-10 10.938 -10 10.938 -12 8 C-12.071 4.455 -11.654 2.78 -9.375 0.062 C-6.01 -1.443 -3.534 -0.748 0 0 Z M-6 3 C-6.33 4.65 -6.66 6.3 -7 8 C-6.01 8.33 -5.02 8.66 -4 9 C-3.34 7.68 -2.68 6.36 -2 5 C-3.32 4.34 -4.64 3.68 -6 3 Z M8 3 C7.67 4.65 7.34 6.3 7 8 C8.32 8 9.64 8 11 8 C12.32 8 13.64 8 15 8 C16.774 6.08 16.774 6.08 18 4 C15.185 2.764 15.185 2.764 13 3.5 C11 4 11 4 8 3 Z " fill="#FFFFFF" transform="translate(258,132)"/>
<path d="M0 0 C0.33 0.99 0.66 1.98 1 3 C-0.323 5.496 -0.323 5.496 -2.332 8.438 C-3.048 9.497 -3.764 10.557 -4.502 11.648 C-5.272 12.766 -6.042 13.883 -6.812 15 C-7.572 16.117 -8.33 17.234 -9.088 18.352 C-10.483 20.405 -11.883 22.457 -13.288 24.504 C-14.539 26.327 -15.774 28.161 -17 30 C-20.624 28.792 -21.152 27.703 -23.188 24.562 C-23.717 23.759 -24.247 22.956 -24.793 22.129 C-26 20 -26 20 -26 18 C-26.66 17.67 -27.32 17.34 -28 17 C-27.34 15.02 -26.68 13.04 -26 11 C-24.053 11.17 -24.053 11.17 -22.066 11.344 C-16.188 11.344 -12.601 8.827 -7.938 5.5 C-7.167 4.975 -6.397 4.451 -5.604 3.91 C-3.722 2.625 -1.856 1.322 0 0 Z " fill="#F79520" transform="translate(122,21)"/>
<path d="M0 0 C1.32 0 2.64 0 4 0 C4 5.94 4 11.88 4 18 C-5 18 -5 18 -7.562 16.5 C-8.037 16.005 -8.511 15.51 -9 15 C-9.33 15.99 -9.66 16.98 -10 18 C-11.65 18 -13.3 18 -15 18 C-15.33 15.03 -15.66 12.06 -16 9 C-16.66 9 -17.32 9 -18 9 C-18.33 11.97 -18.66 14.94 -19 18 C-20.65 17.67 -22.3 17.34 -24 17 C-24 13.04 -24 9.08 -24 5 C-20.313 4.078 -17.75 3.609 -14 4 C-11.625 6 -11.625 6 -10 8 C-9.257 7.34 -8.515 6.68 -7.75 6 C-5 4 -5 4 -1 4 C-0.67 2.68 -0.34 1.36 0 0 Z M-4 8 C-4.33 9.65 -4.66 11.3 -5 13 C-4.01 13.33 -3.02 13.66 -2 14 C-1.34 13.67 -0.68 13.34 0 13 C-0.33 11.35 -0.66 9.7 -1 8 C-1.99 8 -2.98 8 -4 8 Z " fill="#FFFFFF" transform="translate(168,127)"/>
<path d="M0 0 C2.925 0.224 2.925 0.224 5 -1 C10.538 -1.231 10.538 -1.231 13 0 C12.814 0.804 12.629 1.609 12.438 2.438 C12.221 3.706 12.221 3.706 12 5 C12.33 5.33 12.66 5.66 13 6 C13.25 8.438 13.25 8.438 13 11 C8.82 13.786 6.853 12.796 2 12 C2 10.68 2 9.36 2 8 C1.794 8.639 1.587 9.279 1.375 9.938 C0 12 0 12 -2.812 12.938 C-6 13 -6 13 -8.875 12.062 C-11.264 9.744 -11.392 9.189 -11.562 6 C-11.367 3.202 -11.166 2.22 -9.438 -0.062 C-6.026 -1.374 -3.536 -0.707 0 0 Z M6 3 C10 4 10 4 10 4 Z M2 6 C2 6.66 2 7.32 2 8 C2.99 7.67 3.98 7.34 5 7 C4.01 6.67 3.02 6.34 2 6 Z " fill="#FFFFFF" transform="translate(387,132)"/>
<path d="M0 0 C2.97 0 5.94 0 9 0 C9.33 0.66 9.66 1.32 10 2 C10.99 1.34 11.98 0.68 13 0 C16.688 0.375 16.688 0.375 20 1 C20.33 2.32 20.66 3.64 21 5 C17.99 5.934 17.133 6.044 14 5 C13.67 6.32 13.34 7.64 13 9 C13.949 8.814 14.897 8.629 15.875 8.438 C19 8 19 8 21 9 C20.67 10.32 20.34 11.64 20 13 C16.812 13.812 16.812 13.812 13 14 C10.088 11.784 8.407 10.158 7.188 6.688 C7.126 6.131 7.064 5.574 7 5 C6.34 5 5.68 5 5 5 C5 7.97 5 10.94 5 14 C3.35 14 1.7 14 0 14 C0 9.38 0 4.76 0 0 Z " fill="#FFFFFF" transform="translate(340,131)"/>
<path d="M0 0 C0.901 0.018 1.802 0.036 2.73 0.055 C3.418 0.078 4.105 0.101 4.812 0.125 C4.866 2.396 4.905 4.667 4.938 6.938 C4.961 8.202 4.984 9.467 5.008 10.77 C4.812 14.125 4.812 14.125 2.812 17.125 C0.211 17.418 0.211 17.418 -2.812 17.312 C-4.317 17.272 -4.317 17.272 -5.852 17.23 C-6.622 17.196 -7.393 17.161 -8.188 17.125 C-7.981 16.362 -7.775 15.599 -7.562 14.812 C-6.854 11.906 -6.854 11.906 -9.188 9.125 C-9 5.562 -9 5.562 -8.188 2.125 C-4.874 -0.084 -3.843 -0.1 0 0 Z M-3.188 4.125 C-4.177 5.61 -4.177 5.61 -5.188 7.125 C-4.858 7.785 -4.528 8.445 -4.188 9.125 C-2.868 9.125 -1.547 9.125 -0.188 9.125 C0.142 8.135 0.472 7.145 0.812 6.125 C-0.507 5.465 -1.828 4.805 -3.188 4.125 Z M-4.188 13.125 C-0.188 14.125 -0.188 14.125 -0.188 14.125 Z " fill="#FFFFFF" transform="translate(104.1875,130.875)"/>
<path d="M0 0 C0.66 0 1.32 0 2 0 C3.463 1.974 4.807 3.932 6.125 6 C6.684 6.859 6.684 6.859 7.254 7.734 C8.176 9.152 9.089 10.576 10 12 C9.19 13.48 8.377 14.959 7.562 16.438 C7.11 17.261 6.658 18.085 6.191 18.934 C5 21 5 21 4 22 C1.667 22.041 -0.667 22.042 -3 22 C-2.558 14.468 -1.861 7.32 0 0 Z " fill="#F15D29" transform="translate(94,39)"/>
<path d="M0 0 C9.216 -0.485 9.216 -0.485 12.625 1.625 C14.387 4.668 14.442 6.534 14 10 C12 13 12 13 8.875 13.688 C7.452 13.842 7.452 13.842 6 14 C5.67 14.99 5.34 15.98 5 17 C3.35 17 1.7 17 0 17 C0 11.39 0 5.78 0 0 Z M6 4 C5.67 5.65 5.34 7.3 5 9 C6.32 9 7.64 9 9 9 C8.67 7.35 8.34 5.7 8 4 C7.34 4 6.68 4 6 4 Z " fill="#FFFFFF" transform="translate(60,131)"/>
<path d="M0 0 C1.65 0 3.3 0 5 0 C6.174 2.267 7.339 4.538 8.5 6.812 C8.834 7.455 9.168 8.098 9.512 8.76 C11.002 11.695 12 13.661 12 17 C10.35 17 8.7 17 7 17 C6.67 16.01 6.34 15.02 6 14 C3.69 13.67 1.38 13.34 -1 13 C-1.33 14.32 -1.66 15.64 -2 17 C-3.32 17 -4.64 17 -6 17 C-5.345 12.942 -4.054 9.46 -2.438 5.688 C-1.755 4.085 -1.755 4.085 -1.059 2.449 C-0.535 1.237 -0.535 1.237 0 0 Z M2 6 C2 6.99 2 7.98 2 9 C2.66 9 3.32 9 4 9 C3.67 8.01 3.34 7.02 3 6 C2.67 6 2.34 6 2 6 Z " fill="#FFFFFF" transform="translate(8,128)"/>
<path d="M0 0 C3.444 10.374 3.444 10.374 3 16 C-1.218 14.645 -5.294 13.098 -9.375 11.375 C-10.435 10.929 -11.494 10.483 -12.586 10.023 C-13.383 9.686 -14.179 9.348 -15 9 C-14.836 7.172 -14.836 7.172 -14 5 C-11.602 3.516 -11.602 3.516 -8.625 2.25 C-7.648 1.822 -6.671 1.394 -5.664 0.953 C-3 0 -3 0 0 0 Z " fill="#F15C2A" transform="translate(86,63)"/>
<path d="M0 0 C2.475 0.495 2.475 0.495 5 1 C5 1.99 5 2.98 5 4 C5.763 3.938 6.526 3.876 7.312 3.812 C10 4 10 4 11.656 5.156 C13.53 7.727 13.298 9.545 13.188 12.688 C13.16 13.681 13.133 14.675 13.105 15.699 C13.071 16.458 13.036 17.218 13 18 C11.68 18 10.36 18 9 18 C8.67 15.03 8.34 12.06 8 9 C7.34 9 6.68 9 6 9 C5.67 11.64 5.34 14.28 5 17 C3.35 17.33 1.7 17.66 0 18 C0 12.06 0 6.12 0 0 Z " fill="#FFFFFF" transform="translate(311,127)"/>
<path d="M0 0 C1.32 0 2.64 0 4 0 C4.33 1.32 4.66 2.64 5 4 C6.423 4.155 6.423 4.155 7.875 4.312 C11 5 11 5 13 8 C13.195 10.48 13.195 10.48 13.125 13.188 C13.107 14.089 13.089 14.99 13.07 15.918 C13.036 16.949 13.036 16.949 13 18 C11.35 18 9.7 18 8 18 C7.67 15.03 7.34 12.06 7 9 C6.01 9.495 6.01 9.495 5 10 C4.535 11.895 4.535 11.895 4.375 14.062 C4.189 16.012 4.189 16.012 4 18 C2.68 18 1.36 18 0 18 C0 12.06 0 6.12 0 0 Z " fill="#FFFFFF" transform="translate(117,127)"/>
<path d="M0 0 C1.32 0 2.64 0 4 0 C4.33 1.32 4.66 2.64 5 4 C6.423 4.155 6.423 4.155 7.875 4.312 C11 5 11 5 13 8 C13.195 10.48 13.195 10.48 13.125 13.188 C13.107 14.089 13.089 14.99 13.07 15.918 C13.036 16.949 13.036 16.949 13 18 C11.35 18 9.7 18 8 18 C7.67 15.03 7.34 12.06 7 9 C6.01 9 5.02 9 4 9 C4 11.97 4 14.94 4 18 C2.68 18 1.36 18 0 18 C0 12.06 0 6.12 0 0 Z " fill="#FFFFFF" transform="translate(26,127)"/>
<path d="M0 0 C1.32 0 2.64 0 4 0 C4.33 1.32 4.66 2.64 5 4 C6.423 4.155 6.423 4.155 7.875 4.312 C11 5 11 5 13 8 C13.195 10.48 13.195 10.48 13.125 13.188 C13.107 14.089 13.089 14.99 13.07 15.918 C13.036 16.949 13.036 16.949 13 18 C11.35 18 9.7 18 8 18 C7.67 15.03 7.34 12.06 7 9 C6.34 9 5.68 9 5 9 C4.67 11.97 4.34 14.94 4 18 C2.68 18 1.36 18 0 18 C0 12.06 0 6.12 0 0 Z " fill="#FFFFFF" transform="translate(362,127)"/>
<path d="M0 0 C2.18 3.27 2.369 4.217 2 8 C1.375 10.25 1.375 10.25 0 12 C-3.475 13.158 -5.388 13.199 -8.875 12.062 C-11.264 9.744 -11.392 9.189 -11.562 6 C-11.367 3.202 -11.166 2.22 -9.438 -0.062 C-5.949 -1.404 -3.575 -0.927 0 0 Z " fill="#FFFFFF" transform="translate(51,132)"/>
<path d="M0 0 C2 2 2 2 2.195 4.602 C2.172 5.599 2.149 6.597 2.125 7.625 C2.107 8.628 2.089 9.631 2.07 10.664 C2.036 11.82 2.036 11.82 2 13 C0.563 13.054 -0.875 13.093 -2.312 13.125 C-3.113 13.148 -3.914 13.171 -4.738 13.195 C-7 13 -7 13 -10 11 C-10.188 8.562 -10.188 8.562 -10 6 C-10 5.01 -10 4.02 -10 3 C-10 2.01 -10 1.02 -10 0 C-6.26 -1.247 -3.834 -0.767 0 0 Z " fill="#FFFFFF" transform="translate(141,132)"/>
<path d="M0 0 C1.32 0 2.64 0 4 0 C4 2.97 4 5.94 4 9 C5.32 9 6.64 9 8 9 C8 6.03 8 3.06 8 0 C9.65 0 11.3 0 13 0 C13 4.62 13 9.24 13 14 C4.721 14.365 4.721 14.365 1.719 12.844 C0 11 0 11 -0.391 8.301 C-0.344 7.315 -0.298 6.329 -0.25 5.312 C-0.214 4.319 -0.178 3.325 -0.141 2.301 C-0.094 1.542 -0.048 0.782 0 0 Z " fill="#FFFFFF" transform="translate(326,131)"/>
<path d="M0 0 C1.588 -0.062 3.176 -0.124 4.812 -0.188 C6.152 -0.24 6.152 -0.24 7.52 -0.293 C10 0 10 0 11.812 1.156 C13.476 3.739 13.295 5.645 13.188 8.688 C13.16 9.681 13.133 10.675 13.105 11.699 C13.071 12.458 13.036 13.218 13 14 C11.68 14 10.36 14 9 14 C8.67 11.03 8.34 8.06 8 5 C7.34 5 6.68 5 6 5 C5.67 7.97 5.34 10.94 5 14 C3.35 14 1.7 14 0 14 C0 9.38 0 4.76 0 0 Z " fill="#FFFFFF" transform="translate(81,131)"/>
<path d="M0 0 C1.093 0.082 2.186 0.165 3.312 0.25 C2.982 2.89 2.653 5.53 2.312 8.25 C1.322 8.25 0.333 8.25 -0.688 8.25 C-0.688 11.55 -0.688 14.85 -0.688 18.25 C-2.338 18.25 -3.988 18.25 -5.688 18.25 C-5.857 16.667 -6.023 15.084 -6.188 13.5 C-6.28 12.618 -6.373 11.737 -6.469 10.828 C-6.975 4.859 -6.975 4.859 -5.625 2 C-3.688 0.25 -3.688 0.25 0 0 Z " fill="#FFFFFF" transform="translate(185.6875,126.75)"/>
<path d="M0 0 C1.072 0.248 2.145 0.495 3.25 0.75 C3.58 2.07 3.91 3.39 4.25 4.75 C2.93 4.75 1.61 4.75 0.25 4.75 C-0.74 5.08 -1.73 5.41 -2.75 5.75 C-2.42 6.74 -2.09 7.73 -1.75 8.75 C-0.1 8.42 1.55 8.09 3.25 7.75 C3.58 9.07 3.91 10.39 4.25 11.75 C1.25 13.75 1.25 13.75 -2.312 13.562 C-5.75 12.75 -5.75 12.75 -7.75 9.75 C-8.21 6.15 -8.162 4.393 -6.188 1.312 C-3.75 -0.25 -3.75 -0.25 0 0 Z " fill="#FFFFFF" transform="translate(305.75,131.25)"/>
<path d="M0 0 C1.32 0 2.64 0 4 0 C4 5.94 4 11.88 4 18 C2.35 17.67 0.7 17.34 -1 17 C-1.027 14.354 -1.047 11.708 -1.062 9.062 C-1.071 8.308 -1.079 7.553 -1.088 6.775 C-1.097 4.85 -1.052 2.925 -1 1 C-0.67 0.67 -0.34 0.34 0 0 Z " fill="#FFFFFF" transform="translate(287,127)"/>
<path d="M0 0 C2.475 0.495 2.475 0.495 5 1 C5 6.28 5 11.56 5 17 C3.35 17.33 1.7 17.66 0 18 C0 12.06 0 6.12 0 0 Z " fill="#FFFFFF" transform="translate(54,127)"/>
<path d="M0 0 C2.475 0.495 2.475 0.495 5 1 C5 6.28 5 11.56 5 17 C3.35 17.33 1.7 17.66 0 18 C0 12.06 0 6.12 0 0 Z " fill="#FFFFFF" transform="translate(241,127)"/>
<path d="M0 0 C1.98 0.495 1.98 0.495 4 1 C3.67 6.94 3.34 12.88 3 19 C1.68 19 0.36 19 -1 19 C-1.027 16.021 -1.047 13.042 -1.062 10.062 C-1.071 9.212 -1.079 8.362 -1.088 7.486 C-1.091 6.677 -1.094 5.869 -1.098 5.035 C-1.103 4.286 -1.108 3.537 -1.114 2.766 C-1 1 -1 1 0 0 Z " fill="#FFFFFF" transform="translate(76,126)"/>
<path d="M0 0 C-1.687 4.498 -3.817 8.729 -6 13 C-7.98 11.35 -9.96 9.7 -12 8 C-10.78 4.339 -9.874 4.077 -6.562 2.312 C-5.759 1.876 -4.956 1.439 -4.129 0.988 C-2 0 -2 0 0 0 Z " fill="#C0202D" transform="translate(92,95)"/>
<path d="M0 0 C1.65 0 3.3 0 5 0 C5.054 1.791 5.093 3.583 5.125 5.375 C5.148 6.373 5.171 7.37 5.195 8.398 C5 11 5 11 3 13 C2.495 11.397 1.996 9.793 1.5 8.188 C1.222 7.294 0.943 6.401 0.656 5.48 C0 3 0 3 0 0 Z " fill="#F05A2A" transform="translate(126,59)"/>
</svg>
