<svg xmlns="http://www.w3.org/2000/svg" xmlns:xlink="http://www.w3.org/1999/xlink" width="233" zoomAndPan="magnify" viewBox="0 0 174.75 40.499999" height="54" preserveAspectRatio="xMidYMid meet" version="1.0"><defs><g/><clipPath id="8db9d8b07b"><path d="M 0.941406 0 L 24.648438 0 L 24.648438 40.007812 L 0.941406 40.007812 Z M 0.941406 0 " clip-rule="nonzero"/></clipPath><clipPath id="13e266c6dc"><path d="M 0.0195312 3 L 24 3 L 24 20 L 0.0195312 20 Z M 0.0195312 3 " clip-rule="nonzero"/></clipPath><clipPath id="bdfb82a08a"><rect x="0" width="145" y="0" height="28"/></clipPath><clipPath id="fd64a2b32f"><path d="M 53 26 L 153 26 L 153 40.007812 L 53 40.007812 Z M 53 26 " clip-rule="nonzero"/></clipPath><clipPath id="40944cdfb4"><path d="M 0.0976562 3 L 7 3 L 7 13 L 0.0976562 13 Z M 0.0976562 3 " clip-rule="nonzero"/></clipPath><clipPath id="0603255d44"><rect x="0" width="100" y="0" height="15"/></clipPath></defs><g clip-path="url(#8db9d8b07b)"><path fill="#ffb400" d="M 10.355469 40.007812 L 15.0625 40.007812 L 15.0625 14.511719 L 24.476562 14.511719 L 24.476562 9.804688 L 15.0625 9.804688 L 15.0625 0 L 10.355469 0 L 10.355469 9.804688 L 0.941406 9.804688 L 0.941406 14.511719 L 10.355469 14.511719 Z M 10.355469 40.007812 " fill-opacity="1" fill-rule="nonzero"/></g><g transform="matrix(1, 0, 0, 1, 27, 0)"><g clip-path="url(#bdfb82a08a)"><g clip-path="url(#13e266c6dc)"><g fill="#ffb400" fill-opacity="1"><g transform="translate(0.903007, 19.124007)"><g><path d="M 22.453125 -15.484375 L 22.25 -15.484375 C 21.875 -15.484375 21.492188 -15.367188 21.109375 -15.140625 C 20.734375 -14.921875 20.460938 -14.601562 20.296875 -14.1875 L 16.53125 -2.09375 C 16.269531 -1.269531 16.140625 -0.503906 16.140625 0.203125 C 16.140625 0.273438 16.140625 0.34375 16.140625 0.40625 L 15.921875 0.40625 L 11.03125 -10.4375 L 7.484375 -2.09375 C 7.140625 -1.21875 6.960938 -0.382812 6.953125 0.40625 L 6.71875 0.40625 L 1.359375 -14.1875 C 1.160156 -14.613281 0.882812 -14.9375 0.53125 -15.15625 C 0.175781 -15.375 -0.1875 -15.484375 -0.5625 -15.484375 L -0.75 -15.484375 L -0.75 -15.703125 L 6.09375 -15.703125 L 6.09375 -15.484375 L 5.890625 -15.484375 C 5.578125 -15.484375 5.34375 -15.378906 5.1875 -15.171875 C 5.03125 -14.972656 4.953125 -14.785156 4.953125 -14.609375 C 4.953125 -14.429688 4.984375 -14.257812 5.046875 -14.09375 L 7.796875 -6.28125 L 11.859375 -16.0625 L 12.0625 -16.046875 L 16.53125 -6.1875 L 18.765625 -14.09375 C 18.816406 -14.257812 18.84375 -14.429688 18.84375 -14.609375 C 18.84375 -14.785156 18.769531 -14.972656 18.625 -15.171875 C 18.488281 -15.378906 18.253906 -15.484375 17.921875 -15.484375 L 17.71875 -15.484375 L 17.71875 -15.703125 L 22.453125 -15.703125 Z M 22.453125 -15.484375 "/></g></g></g></g><g fill="#ffb400" fill-opacity="1"><g transform="translate(23.031288, 19.124007)"><g><path d="M 11.328125 0 L 0.765625 0 L 0.765625 -0.21875 L 1.03125 -0.21875 C 1.375 -0.21875 1.660156 -0.328125 1.890625 -0.546875 C 2.128906 -0.773438 2.253906 -1.054688 2.265625 -1.390625 L 2.265625 -12.078125 C 2.253906 -12.398438 2.128906 -12.671875 1.890625 -12.890625 C 1.660156 -13.117188 1.375 -13.234375 1.03125 -13.234375 L 0.765625 -13.234375 L 0.765625 -13.46875 L 8.65625 -13.46875 C 9.0625 -13.46875 9.503906 -13.503906 9.984375 -13.578125 C 10.460938 -13.648438 10.800781 -13.722656 11 -13.796875 L 11 -10.234375 L 10.765625 -10.234375 L 10.765625 -10.4375 C 10.765625 -11.09375 10.582031 -11.609375 10.21875 -11.984375 C 9.863281 -12.359375 9.367188 -12.550781 8.734375 -12.5625 L 5.5 -12.5625 L 5.5 -7.109375 L 8.0625 -7.109375 C 8.5625 -7.128906 8.96875 -7.300781 9.28125 -7.625 C 9.601562 -7.957031 9.765625 -8.378906 9.765625 -8.890625 L 9.765625 -9.046875 L 9.984375 -9.046875 L 9.984375 -4.28125 L 9.765625 -4.28125 L 9.765625 -4.4375 C 9.765625 -5.144531 9.5 -5.65625 8.96875 -5.96875 C 8.707031 -6.132812 8.410156 -6.21875 8.078125 -6.21875 L 5.5 -6.21875 L 5.5 -0.890625 L 8.1875 -0.890625 C 9.113281 -0.910156 9.898438 -1.203125 10.546875 -1.765625 C 11.203125 -2.328125 11.679688 -3.113281 11.984375 -4.125 L 12.1875 -4.125 Z M 11.328125 0 "/></g></g></g><g fill="#ffb400" fill-opacity="1"><g transform="translate(36.003053, 19.124007)"><g><path d="M 0.765625 0 L 0.765625 -0.21875 L 1.03125 -0.21875 C 1.375 -0.21875 1.660156 -0.328125 1.890625 -0.546875 C 2.128906 -0.773438 2.25 -1.054688 2.25 -1.390625 L 2.25 -12.046875 C 2.25 -12.378906 2.128906 -12.660156 1.890625 -12.890625 C 1.648438 -13.117188 1.363281 -13.234375 1.03125 -13.234375 L 0.765625 -13.234375 L 0.765625 -13.46875 L 7 -13.46875 L 7 -13.234375 L 6.734375 -13.234375 C 6.390625 -13.234375 6.097656 -13.117188 5.859375 -12.890625 C 5.617188 -12.671875 5.5 -12.390625 5.5 -12.046875 L 5.5 -0.890625 L 8.1875 -0.890625 C 9.113281 -0.910156 9.898438 -1.203125 10.546875 -1.765625 C 11.191406 -2.328125 11.660156 -3.113281 11.953125 -4.125 L 12.203125 -4.125 L 11.328125 0 Z M 0.765625 0 "/></g></g></g><g fill="#ffb400" fill-opacity="1"><g transform="translate(48.638189, 19.124007)"><g><path d="M 0.765625 0 L 0.765625 -0.21875 L 1.03125 -0.21875 C 1.375 -0.21875 1.660156 -0.328125 1.890625 -0.546875 C 2.128906 -0.773438 2.25 -1.054688 2.25 -1.390625 L 2.25 -12.046875 C 2.25 -12.378906 2.128906 -12.660156 1.890625 -12.890625 C 1.648438 -13.117188 1.363281 -13.234375 1.03125 -13.234375 L 0.765625 -13.234375 L 0.765625 -13.46875 L 7 -13.46875 L 7 -13.234375 L 6.734375 -13.234375 C 6.390625 -13.234375 6.097656 -13.117188 5.859375 -12.890625 C 5.617188 -12.671875 5.5 -12.390625 5.5 -12.046875 L 5.5 -0.890625 L 8.1875 -0.890625 C 9.113281 -0.910156 9.898438 -1.203125 10.546875 -1.765625 C 11.191406 -2.328125 11.660156 -3.113281 11.953125 -4.125 L 12.203125 -4.125 L 11.328125 0 Z M 0.765625 0 "/></g></g></g><g fill="#ffb400" fill-opacity="1"><g transform="translate(61.273325, 19.124007)"><g><path d="M 1.03125 -1.84375 C 1.03125 -2.8125 1.25 -3.640625 1.6875 -4.328125 L 1.859375 -4.328125 C 1.847656 -4.222656 1.84375 -4.125 1.84375 -4.03125 C 1.84375 -3.125 2.164062 -2.328125 2.8125 -1.640625 C 3.46875 -0.953125 4.378906 -0.609375 5.546875 -0.609375 C 6.378906 -0.609375 7.023438 -0.800781 7.484375 -1.1875 C 7.941406 -1.570312 8.171875 -2.003906 8.171875 -2.484375 C 8.171875 -2.960938 8.035156 -3.347656 7.765625 -3.640625 C 7.503906 -3.929688 7.078125 -4.273438 6.484375 -4.671875 L 3.296875 -6.6875 C 1.953125 -7.519531 1.28125 -8.597656 1.28125 -9.921875 C 1.28125 -10.054688 1.285156 -10.195312 1.296875 -10.34375 C 1.390625 -11.40625 1.800781 -12.238281 2.53125 -12.84375 C 3.269531 -13.445312 4.132812 -13.75 5.125 -13.75 C 6.125 -13.75 7.175781 -13.679688 8.28125 -13.546875 L 9.484375 -13.546875 L 9.171875 -10.59375 L 8.96875 -10.59375 C 8.96875 -11.289062 8.722656 -11.84375 8.234375 -12.25 C 7.753906 -12.65625 7.113281 -12.859375 6.3125 -12.859375 C 5.507812 -12.859375 4.875 -12.6875 4.40625 -12.34375 C 3.945312 -12.007812 3.71875 -11.566406 3.71875 -11.015625 C 3.71875 -10.566406 3.941406 -10.175781 4.390625 -9.84375 C 4.578125 -9.707031 4.84375 -9.535156 5.1875 -9.328125 L 8.75 -7.140625 C 9.976562 -6.390625 10.59375 -5.351562 10.59375 -4.03125 C 10.59375 -2.644531 10.101562 -1.578125 9.125 -0.828125 C 8.144531 -0.078125 6.875 0.296875 5.3125 0.296875 C 4.351562 0.296875 3.507812 0.1875 2.78125 -0.03125 C 2.050781 -0.257812 1.515625 -0.546875 1.171875 -0.890625 C 1.078125 -1.160156 1.03125 -1.476562 1.03125 -1.84375 Z M 1.03125 -1.84375 "/></g></g></g><g fill="#ffb400" fill-opacity="1"><g transform="translate(73.145415, 19.124007)"><g><path d="M 12.09375 -7.421875 C 11.34375 -6.117188 10.171875 -5.46875 8.578125 -5.46875 C 7.773438 -5.46875 6.988281 -5.734375 6.21875 -6.265625 L 6.21875 -6.4375 C 7.707031 -6.4375 8.664062 -7.203125 9.09375 -8.734375 C 9.175781 -9.078125 9.21875 -9.351562 9.21875 -9.5625 C 9.21875 -10.59375 8.96875 -11.351562 8.46875 -11.84375 C 7.976562 -12.34375 7.320312 -12.59375 6.5 -12.59375 L 5.5 -12.59375 L 5.5 -1.40625 C 5.507812 -0.9375 5.710938 -0.59375 6.109375 -0.375 C 6.285156 -0.269531 6.484375 -0.21875 6.703125 -0.21875 L 6.984375 -0.21875 L 6.984375 0 L 0.78125 0 L 0.78125 -0.21875 L 1.046875 -0.21875 C 1.378906 -0.21875 1.660156 -0.328125 1.890625 -0.546875 C 2.128906 -0.773438 2.25 -1.054688 2.25 -1.390625 L 2.25 -12.046875 C 2.25 -12.390625 2.128906 -12.671875 1.890625 -12.890625 C 1.660156 -13.117188 1.375 -13.234375 1.03125 -13.234375 L 0.765625 -13.234375 L 0.765625 -13.46875 L 7.40625 -13.46875 C 9.125 -13.46875 10.410156 -13.125 11.265625 -12.4375 C 12.171875 -11.726562 12.625 -10.757812 12.625 -9.53125 C 12.625 -8.757812 12.445312 -8.054688 12.09375 -7.421875 Z M 12.09375 -7.421875 "/></g></g></g><g fill="#ffb400" fill-opacity="1"><g transform="translate(86.610912, 19.124007)"><g><path d="M 6.34375 -12.546875 L 5.625 -12.546875 L 5.625 -1.40625 C 5.625 -1.050781 5.75 -0.765625 6 -0.546875 C 6.25 -0.328125 6.53125 -0.21875 6.84375 -0.21875 L 7.09375 -0.21875 L 7.09375 0 L 0.921875 0 L 0.921875 -0.21875 L 1.1875 -0.21875 C 1.519531 -0.21875 1.800781 -0.328125 2.03125 -0.546875 C 2.257812 -0.773438 2.375 -1.054688 2.375 -1.390625 L 2.375 -12.078125 C 2.375 -12.398438 2.257812 -12.671875 2.03125 -12.890625 C 1.800781 -13.117188 1.53125 -13.234375 1.21875 -13.234375 L 0.921875 -13.234375 L 0.921875 -13.46875 L 7.8125 -13.46875 C 9.15625 -13.46875 10.285156 -13.203125 11.203125 -12.671875 C 12.210938 -12.085938 12.71875 -11.125 12.71875 -9.78125 C 12.71875 -8.914062 12.457031 -8.132812 11.9375 -7.4375 C 11.414062 -6.738281 10.640625 -6.316406 9.609375 -6.171875 C 10.003906 -6.035156 10.398438 -5.78125 10.796875 -5.40625 C 11.191406 -5.03125 11.507812 -4.648438 11.75 -4.265625 C 12.226562 -3.410156 12.726562 -2.628906 13.25 -1.921875 C 13.78125 -1.210938 14.207031 -0.75 14.53125 -0.53125 C 14.851562 -0.320312 15.242188 -0.21875 15.703125 -0.21875 L 15.703125 0 L 13.828125 0 C 12.578125 0 11.617188 -0.144531 10.953125 -0.4375 C 10.296875 -0.738281 9.703125 -1.3125 9.171875 -2.15625 C 8.367188 -3.4375 7.867188 -4.453125 7.671875 -5.203125 C 7.492188 -5.648438 7.28125 -5.984375 7.03125 -6.203125 C 6.78125 -6.429688 6.546875 -6.5625 6.328125 -6.59375 L 6.328125 -6.78125 L 6.890625 -6.78125 C 8.160156 -6.789062 8.9375 -7.535156 9.21875 -9.015625 C 9.28125 -9.242188 9.3125 -9.4375 9.3125 -9.59375 C 9.3125 -9.757812 9.300781 -9.988281 9.28125 -10.28125 C 9.269531 -10.570312 9.175781 -10.898438 9 -11.265625 C 8.832031 -11.640625 8.613281 -11.910156 8.34375 -12.078125 C 7.882812 -12.359375 7.40625 -12.503906 6.90625 -12.515625 C 6.738281 -12.535156 6.550781 -12.546875 6.34375 -12.546875 Z M 6.34375 -12.546875 "/></g></g></g><g fill="#ffb400" fill-opacity="1"><g transform="translate(101.692271, 19.124007)"><g><path d="M 0.765625 -0.21875 L 1.03125 -0.21875 C 1.394531 -0.21875 1.703125 -0.332031 1.953125 -0.5625 C 2.203125 -0.800781 2.328125 -1.082031 2.328125 -1.40625 L 2.328125 -12.046875 C 2.328125 -12.378906 2.203125 -12.660156 1.953125 -12.890625 C 1.703125 -13.117188 1.394531 -13.234375 1.03125 -13.234375 L 0.765625 -13.234375 L 0.765625 -13.46875 L 7.140625 -13.46875 L 7.140625 -13.234375 L 6.859375 -13.234375 C 6.515625 -13.234375 6.21875 -13.117188 5.96875 -12.890625 C 5.71875 -12.671875 5.582031 -12.398438 5.5625 -12.078125 L 5.5625 -1.40625 C 5.582031 -1.0625 5.71875 -0.773438 5.96875 -0.546875 C 6.21875 -0.328125 6.515625 -0.21875 6.859375 -0.21875 L 7.140625 -0.21875 L 7.140625 0 L 0.765625 0 Z M 0.765625 -0.21875 "/></g></g></g><g fill="#ffb400" fill-opacity="1"><g transform="translate(109.928695, 19.124007)"><g><path d="M 10.71875 -13.46875 L 17.03125 -13.46875 L 17.03125 -13.234375 L 16.65625 -13.234375 C 16.300781 -13.234375 16.007812 -13.128906 15.78125 -12.921875 C 15.550781 -12.710938 15.429688 -12.441406 15.421875 -12.109375 L 15.421875 -2.3125 C 15.421875 -1.382812 15.476562 -0.617188 15.59375 -0.015625 L 15.640625 0.296875 L 15.4375 0.296875 L 5.140625 -8.796875 L 5.140625 -1.375 C 5.148438 -1.039062 5.269531 -0.765625 5.5 -0.546875 C 5.738281 -0.328125 6.03125 -0.21875 6.375 -0.21875 L 6.75 -0.21875 L 6.75 0 L 0.46875 0 L 0.46875 -0.21875 L 0.828125 -0.21875 C 1.171875 -0.21875 1.460938 -0.328125 1.703125 -0.546875 C 1.941406 -0.765625 2.0625 -1.039062 2.0625 -1.375 L 2.0625 -11.234375 C 2.0625 -12.140625 2.003906 -12.882812 1.890625 -13.46875 L 1.84375 -13.78125 L 2.046875 -13.75 L 12.3125 -4.71875 L 12.3125 -12.09375 C 12.3125 -12.425781 12.195312 -12.695312 11.96875 -12.90625 C 11.738281 -13.125 11.453125 -13.234375 11.109375 -13.234375 L 10.71875 -13.234375 Z M 10.71875 -13.46875 "/></g></g></g><g fill="#ffb400" fill-opacity="1"><g transform="translate(127.748033, 19.124007)"><g><path d="M 2.765625 -1.609375 C 1.429688 -2.859375 0.765625 -4.570312 0.765625 -6.75 C 0.765625 -8.9375 1.429688 -10.648438 2.765625 -11.890625 C 4.109375 -13.128906 5.953125 -13.75 8.296875 -13.75 C 9.347656 -13.75 10.378906 -13.65625 11.390625 -13.46875 C 12.410156 -13.28125 13.234375 -13.03125 13.859375 -12.71875 L 13.859375 -9.15625 L 13.6875 -9.15625 C 13.03125 -11.625 11.457031 -12.859375 8.96875 -12.859375 C 7.414062 -12.859375 6.234375 -12.316406 5.421875 -11.234375 C 4.609375 -10.148438 4.203125 -8.640625 4.203125 -6.703125 C 4.203125 -4.765625 4.570312 -3.265625 5.3125 -2.203125 C 6.050781 -1.140625 7.097656 -0.609375 8.453125 -0.609375 C 9.203125 -0.609375 9.875 -0.78125 10.46875 -1.125 C 11.070312 -1.476562 11.472656 -1.984375 11.671875 -2.640625 L 11.6875 -5.34375 C 11.6875 -5.625 11.597656 -5.84375 11.421875 -6 C 11.253906 -6.15625 11.015625 -6.234375 10.703125 -6.234375 L 10.390625 -6.234375 L 10.390625 -6.421875 L 16.15625 -6.421875 L 16.15625 -6.234375 L 15.890625 -6.234375 C 15.234375 -6.234375 14.90625 -5.9375 14.90625 -5.34375 L 14.90625 -2.328125 C 14.375 -1.660156 13.488281 -1.054688 12.25 -0.515625 C 11.007812 0.0234375 9.648438 0.296875 8.171875 0.296875 C 5.910156 0.273438 4.109375 -0.359375 2.765625 -1.609375 Z M 2.765625 -1.609375 "/></g></g></g></g></g><g clip-path="url(#fd64a2b32f)"><g transform="matrix(1, 0, 0, 1, 53, 26)"><g clip-path="url(#0603255d44)"><g clip-path="url(#40944cdfb4)"><g fill="#ffb400" fill-opacity="1"><g transform="translate(1.088153, 12.325796)"><g><path d="M 2.5625 0.140625 C 1.988281 0.140625 1.460938 0.0351562 0.984375 -0.171875 C 0.503906 -0.390625 0.113281 -0.695312 -0.1875 -1.09375 L 0.890625 -2.390625 C 1.347656 -1.773438 1.875 -1.46875 2.46875 -1.46875 C 3.269531 -1.46875 3.671875 -1.929688 3.671875 -2.859375 L 3.671875 -6.890625 L 0.6875 -6.890625 L 0.6875 -8.46875 L 5.609375 -8.46875 L 5.609375 -2.96875 C 5.609375 -1.9375 5.347656 -1.160156 4.828125 -0.640625 C 4.316406 -0.117188 3.5625 0.140625 2.5625 0.140625 Z M 2.5625 0.140625 "/></g></g></g></g><g fill="#ffb400" fill-opacity="1"><g transform="translate(7.870864, 12.325796)"><g><path d="M 7.5625 -1.578125 L 7.5625 0 L 1 0 L 1 -8.46875 L 7.40625 -8.46875 L 7.40625 -6.890625 L 2.953125 -6.890625 L 2.953125 -5.0625 L 6.875 -5.0625 L 6.875 -3.53125 L 2.953125 -3.53125 L 2.953125 -1.578125 Z M 7.5625 -1.578125 "/></g></g></g><g fill="#ffb400" fill-opacity="1"><g transform="translate(16.225275, 12.325796)"><g><path d="M 3.78125 0.140625 C 3.113281 0.140625 2.46875 0.0507812 1.84375 -0.125 C 1.21875 -0.3125 0.71875 -0.546875 0.34375 -0.828125 L 1 -2.3125 C 1.363281 -2.039062 1.796875 -1.820312 2.296875 -1.65625 C 2.796875 -1.5 3.296875 -1.421875 3.796875 -1.421875 C 4.347656 -1.421875 4.757812 -1.503906 5.03125 -1.671875 C 5.300781 -1.835938 5.4375 -2.054688 5.4375 -2.328125 C 5.4375 -2.535156 5.351562 -2.703125 5.1875 -2.828125 C 5.03125 -2.960938 4.828125 -3.070312 4.578125 -3.15625 C 4.335938 -3.238281 4.007812 -3.328125 3.59375 -3.421875 C 2.945312 -3.578125 2.414062 -3.726562 2 -3.875 C 1.59375 -4.03125 1.242188 -4.273438 0.953125 -4.609375 C 0.660156 -4.953125 0.515625 -5.40625 0.515625 -5.96875 C 0.515625 -6.46875 0.644531 -6.914062 0.90625 -7.3125 C 1.175781 -7.707031 1.578125 -8.019531 2.109375 -8.25 C 2.648438 -8.488281 3.304688 -8.609375 4.078125 -8.609375 C 4.617188 -8.609375 5.144531 -8.539062 5.65625 -8.40625 C 6.175781 -8.28125 6.628906 -8.097656 7.015625 -7.859375 L 6.40625 -6.375 C 5.625 -6.8125 4.84375 -7.03125 4.0625 -7.03125 C 3.507812 -7.03125 3.101562 -6.941406 2.84375 -6.765625 C 2.582031 -6.585938 2.453125 -6.359375 2.453125 -6.078125 C 2.453125 -5.785156 2.601562 -5.566406 2.90625 -5.421875 C 3.207031 -5.285156 3.671875 -5.144531 4.296875 -5 C 4.941406 -4.851562 5.46875 -4.703125 5.875 -4.546875 C 6.289062 -4.390625 6.644531 -4.144531 6.9375 -3.8125 C 7.226562 -3.488281 7.375 -3.046875 7.375 -2.484375 C 7.375 -1.992188 7.238281 -1.550781 6.96875 -1.15625 C 6.695312 -0.757812 6.289062 -0.441406 5.75 -0.203125 C 5.21875 0.0234375 4.5625 0.140625 3.78125 0.140625 Z M 3.78125 0.140625 "/></g></g></g><g fill="#ffb400" fill-opacity="1"><g transform="translate(24.180717, 12.325796)"><g><path d="M 4.765625 0.140625 C 3.554688 0.140625 2.613281 -0.191406 1.9375 -0.859375 C 1.269531 -1.523438 0.9375 -2.476562 0.9375 -3.71875 L 0.9375 -8.46875 L 2.890625 -8.46875 L 2.890625 -3.796875 C 2.890625 -2.285156 3.519531 -1.53125 4.78125 -1.53125 C 5.394531 -1.53125 5.859375 -1.710938 6.171875 -2.078125 C 6.492188 -2.441406 6.65625 -3.015625 6.65625 -3.796875 L 6.65625 -8.46875 L 8.59375 -8.46875 L 8.59375 -3.71875 C 8.59375 -2.476562 8.253906 -1.523438 7.578125 -0.859375 C 6.910156 -0.191406 5.972656 0.140625 4.765625 0.140625 Z M 4.765625 0.140625 "/></g></g></g><g fill="#ffb400" fill-opacity="1"><g transform="translate(33.949664, 12.325796)"><g><path d="M 3.78125 0.140625 C 3.113281 0.140625 2.46875 0.0507812 1.84375 -0.125 C 1.21875 -0.3125 0.71875 -0.546875 0.34375 -0.828125 L 1 -2.3125 C 1.363281 -2.039062 1.796875 -1.820312 2.296875 -1.65625 C 2.796875 -1.5 3.296875 -1.421875 3.796875 -1.421875 C 4.347656 -1.421875 4.757812 -1.503906 5.03125 -1.671875 C 5.300781 -1.835938 5.4375 -2.054688 5.4375 -2.328125 C 5.4375 -2.535156 5.351562 -2.703125 5.1875 -2.828125 C 5.03125 -2.960938 4.828125 -3.070312 4.578125 -3.15625 C 4.335938 -3.238281 4.007812 -3.328125 3.59375 -3.421875 C 2.945312 -3.578125 2.414062 -3.726562 2 -3.875 C 1.59375 -4.03125 1.242188 -4.273438 0.953125 -4.609375 C 0.660156 -4.953125 0.515625 -5.40625 0.515625 -5.96875 C 0.515625 -6.46875 0.644531 -6.914062 0.90625 -7.3125 C 1.175781 -7.707031 1.578125 -8.019531 2.109375 -8.25 C 2.648438 -8.488281 3.304688 -8.609375 4.078125 -8.609375 C 4.617188 -8.609375 5.144531 -8.539062 5.65625 -8.40625 C 6.175781 -8.28125 6.628906 -8.097656 7.015625 -7.859375 L 6.40625 -6.375 C 5.625 -6.8125 4.84375 -7.03125 4.0625 -7.03125 C 3.507812 -7.03125 3.101562 -6.941406 2.84375 -6.765625 C 2.582031 -6.585938 2.453125 -6.359375 2.453125 -6.078125 C 2.453125 -5.785156 2.601562 -5.566406 2.90625 -5.421875 C 3.207031 -5.285156 3.671875 -5.144531 4.296875 -5 C 4.941406 -4.851562 5.46875 -4.703125 5.875 -4.546875 C 6.289062 -4.390625 6.644531 -4.144531 6.9375 -3.8125 C 7.226562 -3.488281 7.375 -3.046875 7.375 -2.484375 C 7.375 -1.992188 7.238281 -1.550781 6.96875 -1.15625 C 6.695312 -0.757812 6.289062 -0.441406 5.75 -0.203125 C 5.21875 0.0234375 4.5625 0.140625 3.78125 0.140625 Z M 3.78125 0.140625 "/></g></g></g><g fill="#ffb400" fill-opacity="1"><g transform="translate(41.905106, 12.325796)"><g/></g></g><g fill="#ffb400" fill-opacity="1"><g transform="translate(45.568577, 12.325796)"><g><path d="M 1 -8.46875 L 2.96875 -8.46875 L 2.96875 0 L 1 0 Z M 1 -8.46875 "/></g></g></g><g fill="#ffb400" fill-opacity="1"><g transform="translate(49.776103, 12.325796)"><g><path d="M 3.78125 0.140625 C 3.113281 0.140625 2.46875 0.0507812 1.84375 -0.125 C 1.21875 -0.3125 0.71875 -0.546875 0.34375 -0.828125 L 1 -2.3125 C 1.363281 -2.039062 1.796875 -1.820312 2.296875 -1.65625 C 2.796875 -1.5 3.296875 -1.421875 3.796875 -1.421875 C 4.347656 -1.421875 4.757812 -1.503906 5.03125 -1.671875 C 5.300781 -1.835938 5.4375 -2.054688 5.4375 -2.328125 C 5.4375 -2.535156 5.351562 -2.703125 5.1875 -2.828125 C 5.03125 -2.960938 4.828125 -3.070312 4.578125 -3.15625 C 4.335938 -3.238281 4.007812 -3.328125 3.59375 -3.421875 C 2.945312 -3.578125 2.414062 -3.726562 2 -3.875 C 1.59375 -4.03125 1.242188 -4.273438 0.953125 -4.609375 C 0.660156 -4.953125 0.515625 -5.40625 0.515625 -5.96875 C 0.515625 -6.46875 0.644531 -6.914062 0.90625 -7.3125 C 1.175781 -7.707031 1.578125 -8.019531 2.109375 -8.25 C 2.648438 -8.488281 3.304688 -8.609375 4.078125 -8.609375 C 4.617188 -8.609375 5.144531 -8.539062 5.65625 -8.40625 C 6.175781 -8.28125 6.628906 -8.097656 7.015625 -7.859375 L 6.40625 -6.375 C 5.625 -6.8125 4.84375 -7.03125 4.0625 -7.03125 C 3.507812 -7.03125 3.101562 -6.941406 2.84375 -6.765625 C 2.582031 -6.585938 2.453125 -6.359375 2.453125 -6.078125 C 2.453125 -5.785156 2.601562 -5.566406 2.90625 -5.421875 C 3.207031 -5.285156 3.671875 -5.144531 4.296875 -5 C 4.941406 -4.851562 5.46875 -4.703125 5.875 -4.546875 C 6.289062 -4.390625 6.644531 -4.144531 6.9375 -3.8125 C 7.226562 -3.488281 7.375 -3.046875 7.375 -2.484375 C 7.375 -1.992188 7.238281 -1.550781 6.96875 -1.15625 C 6.695312 -0.757812 6.289062 -0.441406 5.75 -0.203125 C 5.21875 0.0234375 4.5625 0.140625 3.78125 0.140625 Z M 3.78125 0.140625 "/></g></g></g><g fill="#ffb400" fill-opacity="1"><g transform="translate(57.731545, 12.325796)"><g/></g></g><g fill="#ffb400" fill-opacity="1"><g transform="translate(61.395017, 12.325796)"><g><path d="M 1 -8.46875 L 2.96875 -8.46875 L 2.96875 -1.59375 L 7.203125 -1.59375 L 7.203125 0 L 1 0 Z M 1 -8.46875 "/></g></g></g><g fill="#ffb400" fill-opacity="1"><g transform="translate(68.939395, 12.325796)"><g><path d="M 5.109375 0.140625 C 4.222656 0.140625 3.425781 -0.046875 2.71875 -0.421875 C 2.019531 -0.796875 1.46875 -1.316406 1.0625 -1.984375 C 0.664062 -2.648438 0.46875 -3.398438 0.46875 -4.234375 C 0.46875 -5.066406 0.664062 -5.8125 1.0625 -6.46875 C 1.46875 -7.132812 2.019531 -7.65625 2.71875 -8.03125 C 3.425781 -8.414062 4.222656 -8.609375 5.109375 -8.609375 C 5.984375 -8.609375 6.769531 -8.414062 7.46875 -8.03125 C 8.175781 -7.65625 8.726562 -7.132812 9.125 -6.46875 C 9.53125 -5.8125 9.734375 -5.066406 9.734375 -4.234375 C 9.734375 -3.398438 9.53125 -2.648438 9.125 -1.984375 C 8.726562 -1.316406 8.175781 -0.796875 7.46875 -0.421875 C 6.769531 -0.046875 5.984375 0.140625 5.109375 0.140625 Z M 5.109375 -1.53125 C 5.609375 -1.53125 6.054688 -1.644531 6.453125 -1.875 C 6.859375 -2.101562 7.175781 -2.421875 7.40625 -2.828125 C 7.632812 -3.242188 7.75 -3.710938 7.75 -4.234375 C 7.75 -4.753906 7.632812 -5.21875 7.40625 -5.625 C 7.175781 -6.039062 6.859375 -6.363281 6.453125 -6.59375 C 6.054688 -6.820312 5.609375 -6.9375 5.109375 -6.9375 C 4.609375 -6.9375 4.15625 -6.820312 3.75 -6.59375 C 3.34375 -6.363281 3.023438 -6.039062 2.796875 -5.625 C 2.566406 -5.21875 2.453125 -4.753906 2.453125 -4.234375 C 2.453125 -3.710938 2.566406 -3.242188 2.796875 -2.828125 C 3.023438 -2.421875 3.34375 -2.101562 3.75 -1.875 C 4.15625 -1.644531 4.609375 -1.53125 5.109375 -1.53125 Z M 5.109375 -1.53125 "/></g></g></g><g fill="#ffb400" fill-opacity="1"><g transform="translate(79.385385, 12.325796)"><g><path d="M 6.390625 0 L 4.765625 -2.359375 L 2.96875 -2.359375 L 2.96875 0 L 1 0 L 1 -8.46875 L 4.671875 -8.46875 C 5.421875 -8.46875 6.070312 -8.34375 6.625 -8.09375 C 7.175781 -7.84375 7.597656 -7.488281 7.890625 -7.03125 C 8.191406 -6.570312 8.34375 -6.023438 8.34375 -5.390625 C 8.34375 -4.765625 8.191406 -4.222656 7.890625 -3.765625 C 7.585938 -3.304688 7.160156 -2.957031 6.609375 -2.71875 L 8.5 0 Z M 6.359375 -5.390625 C 6.359375 -5.867188 6.203125 -6.234375 5.890625 -6.484375 C 5.585938 -6.742188 5.144531 -6.875 4.5625 -6.875 L 2.96875 -6.875 L 2.96875 -3.921875 L 4.5625 -3.921875 C 5.144531 -3.921875 5.585938 -4.046875 5.890625 -4.296875 C 6.203125 -4.554688 6.359375 -4.921875 6.359375 -5.390625 Z M 6.359375 -5.390625 "/></g></g></g><g fill="#ffb400" fill-opacity="1"><g transform="translate(88.513559, 12.325796)"><g><path d="M 1 -8.46875 L 4.84375 -8.46875 C 5.769531 -8.46875 6.582031 -8.289062 7.28125 -7.9375 C 7.988281 -7.582031 8.535156 -7.085938 8.921875 -6.453125 C 9.316406 -5.816406 9.515625 -5.078125 9.515625 -4.234375 C 9.515625 -3.390625 9.316406 -2.644531 8.921875 -2 C 8.535156 -1.363281 7.988281 -0.867188 7.28125 -0.515625 C 6.582031 -0.171875 5.769531 0 4.84375 0 L 1 0 Z M 4.75 -1.609375 C 5.59375 -1.609375 6.265625 -1.84375 6.765625 -2.3125 C 7.273438 -2.789062 7.53125 -3.429688 7.53125 -4.234375 C 7.53125 -5.035156 7.273438 -5.671875 6.765625 -6.140625 C 6.265625 -6.617188 5.59375 -6.859375 4.75 -6.859375 L 2.96875 -6.859375 L 2.96875 -1.609375 Z M 4.75 -1.609375 "/></g></g></g></g></g></g><path stroke-linecap="butt" transform="matrix(0.740854, 0, 0, 0.740854, 31.745705, 23.098605)" fill="none" stroke-linejoin="miter" d="M 0.000524163 2.00232 L 188.370652 2.00232 " stroke="#000000" stroke-width="4" stroke-opacity="1" stroke-miterlimit="4"/></svg>