<?xml version="1.0" encoding="UTF-8"?>
<!-- Generator: visioncortex VTracer 0.6.4 -->
<svg version="1.1" xmlns="http://www.w3.org/2000/svg" width="256" height="256">
<path d="M0 0 C0 0.66 0 1.32 0 2 C0.615 2.061 1.23 2.121 1.863 2.184 C2.672 2.267 3.48 2.351 4.312 2.438 C5.113 2.519 5.914 2.6 6.738 2.684 C9 3 9 3 12 4 C12 4.66 12 5.32 12 6 C13.093 6.144 14.186 6.289 15.312 6.438 C19 7 19 7 22 8 C22 8.66 22 9.32 22 10 C24.64 10.66 27.28 11.32 30 12 C30 12.66 30 13.32 30 14 C31.32 14.33 32.64 14.66 34 15 C34 15.66 34 16.32 34 17 C35.32 16.34 36.64 15.68 38 15 C38 15.99 38 16.98 38 18 C40.633 20.419 42.594 21.865 46 23 C47.207 24.454 47.207 24.454 48.438 25.938 C50.676 28.613 51.825 29.824 55 31 C55 31.66 55 32.32 55 33 C56.65 33 58.3 33 60 33 C60.99 34.98 60.99 34.98 62 37 C62.66 37 63.32 37 64 37 C64.33 38.65 64.66 40.3 65 42 C65.99 42 66.98 42 68 42 C70 45 70 45 70 49 C71.32 49.33 72.64 49.66 74 50 C74 50.99 74 51.98 74 53 C74.99 53.33 75.98 53.66 77 54 C78.187 57.562 78.187 57.562 79 61 C79.33 60.34 79.66 59.68 80 59 C81.422 62.317 82.39 65.442 83 69 C83.33 68.34 83.66 67.68 84 67 C86.229 71.327 85.925 74.284 85 79 C85.66 79 86.32 79 87 79 C87.33 77.68 87.66 76.36 88 75 C89.975 79.938 90.262 83.763 90 89 C89.67 89.66 89.34 90.32 89 91 C89.66 91 90.32 91 91 91 C91 89.02 91 87.04 91 85 C91.33 85 91.66 85 92 85 C93.999 92.955 94.293 100.574 94.266 108.75 C94.268 110.044 94.269 111.338 94.271 112.671 C94.274 115.394 94.27 118.117 94.261 120.84 C94.249 124.303 94.256 127.765 94.268 131.228 C94.277 134.569 94.271 137.909 94.266 141.25 C94.27 142.479 94.274 143.709 94.278 144.976 C94.241 151.889 93.687 158.287 92 165 C91.67 165 91.34 165 91 165 C91 163.02 91 161.04 91 159 C90.34 159 89.68 159 89 159 C89.186 159.681 89.371 160.361 89.562 161.062 C90.308 166.068 89.616 170.64 87 175 C87 173.68 87 172.36 87 171 C86.34 171 85.68 171 85 171 C85.206 172.052 85.412 173.104 85.625 174.188 C86 177.996 85.716 179.668 84 183 C83.67 182.34 83.34 181.68 83 181 C82.876 181.722 82.752 182.444 82.625 183.188 C82.01 185.957 81.116 188.397 80 191 C79.67 190.34 79.34 189.68 79 189 C78.01 191.64 77.02 194.28 76 197 C75.34 197 74.68 197 74 197 C73.845 197.959 73.845 197.959 73.688 198.938 C73.461 199.618 73.234 200.299 73 201 C72.01 201.33 71.02 201.66 70 202 C69.328 203.936 69.328 203.936 69 206 C68.67 206.66 68.34 207.32 68 208 C67.01 208.33 66.02 208.66 65 209 C64.267 211.015 64.267 211.015 64 213 C63.34 213 62.68 213 62 213 C61.34 214.32 60.68 215.64 60 217 C58.35 217 56.7 217 55 217 C54.67 217.99 54.34 218.98 54 220 C53.01 220.33 52.02 220.66 51 221 C49.765 222.495 48.532 223.992 47.328 225.512 C45.508 227.551 43.377 228.687 41 230 C39.151 231.651 38.109 232.782 37 235 C36.01 234.34 35.02 233.68 34 233 C34 233.66 34 234.32 34 235 C32.68 235.33 31.36 235.66 30 236 C30 236.66 30 237.32 30 238 C27.36 238.66 24.72 239.32 22 240 C22 240.66 22 241.32 22 242 C18.38 243.316 15.904 244 12 244 C12 244.66 12 245.32 12 246 C7.88 247.292 4.332 248.263 0 248 C0 248.66 0 249.32 0 250 C-22.669 254.388 -45.331 254.388 -68 250 C-68 249.34 -68 248.68 -68 248 C-68.615 247.939 -69.23 247.879 -69.863 247.816 C-70.672 247.733 -71.48 247.649 -72.312 247.562 C-73.513 247.441 -73.513 247.441 -74.738 247.316 C-77 247 -77 247 -80 246 C-80 245.34 -80 244.68 -80 244 C-81.093 243.856 -82.186 243.711 -83.312 243.562 C-87 243 -87 243 -90 242 C-90 241.34 -90 240.68 -90 240 C-92.64 239.34 -95.28 238.68 -98 238 C-98 237.34 -98 236.68 -98 236 C-99.32 235.67 -100.64 235.34 -102 235 C-102 234.34 -102 233.68 -102 233 C-103.98 233.99 -103.98 233.99 -106 235 C-106 234.01 -106 233.02 -106 232 C-108.633 229.581 -110.594 228.135 -114 227 C-114.804 226.031 -115.609 225.061 -116.438 224.062 C-118.676 221.387 -119.825 220.176 -123 219 C-123 218.34 -123 217.68 -123 217 C-124.65 217 -126.3 217 -128 217 C-128.99 215.02 -128.99 215.02 -130 213 C-130.66 213 -131.32 213 -132 213 C-132.33 211.35 -132.66 209.7 -133 208 C-133.99 208 -134.98 208 -136 208 C-138 205 -138 205 -138 201 C-139.32 200.67 -140.64 200.34 -142 200 C-142 199.01 -142 198.02 -142 197 C-142.99 196.67 -143.98 196.34 -145 196 C-146.188 192.438 -146.188 192.438 -147 189 C-147.495 189.99 -147.495 189.99 -148 191 C-149.422 187.683 -150.39 184.558 -151 181 C-151.495 181.99 -151.495 181.99 -152 183 C-154.229 178.673 -153.925 175.716 -153 171 C-153.66 171 -154.32 171 -155 171 C-155.495 172.98 -155.495 172.98 -156 175 C-157.975 170.062 -158.262 166.237 -158 161 C-157.505 160.01 -157.505 160.01 -157 159 C-157.66 159 -158.32 159 -159 159 C-159 160.98 -159 162.96 -159 165 C-159.33 165 -159.66 165 -160 165 C-161.999 157.045 -162.293 149.426 -162.266 141.25 C-162.268 139.956 -162.269 138.662 -162.271 137.329 C-162.274 134.606 -162.27 131.883 -162.261 129.16 C-162.249 125.697 -162.256 122.235 -162.268 118.772 C-162.277 115.431 -162.271 112.091 -162.266 108.75 C-162.27 107.521 -162.274 106.291 -162.278 105.024 C-162.241 98.111 -161.687 91.713 -160 85 C-159.67 85 -159.34 85 -159 85 C-159 86.98 -159 88.96 -159 91 C-158.34 91 -157.68 91 -157 91 C-157.186 90.319 -157.371 89.639 -157.562 88.938 C-158.308 83.932 -157.616 79.36 -155 75 C-155 76.32 -155 77.64 -155 79 C-154.34 79 -153.68 79 -153 79 C-153.206 77.948 -153.412 76.896 -153.625 75.812 C-154 72.004 -153.716 70.332 -152 67 C-151.67 67.66 -151.34 68.32 -151 69 C-150.876 68.278 -150.752 67.556 -150.625 66.812 C-150.01 64.043 -149.116 61.603 -148 59 C-147.67 59.66 -147.34 60.32 -147 61 C-146.01 58.36 -145.02 55.72 -144 53 C-143.34 53 -142.68 53 -142 53 C-141.897 52.361 -141.794 51.721 -141.688 51.062 C-141.461 50.382 -141.234 49.701 -141 49 C-139.515 48.505 -139.515 48.505 -138 48 C-137.328 46.064 -137.328 46.064 -137 44 C-136 42 -136 42 -133 41 C-132.267 38.985 -132.267 38.985 -132 37 C-131.34 37 -130.68 37 -130 37 C-129.34 35.68 -128.68 34.36 -128 33 C-126.35 33 -124.7 33 -123 33 C-122.67 32.01 -122.34 31.02 -122 30 C-121.01 29.67 -120.02 29.34 -119 29 C-117.765 27.505 -116.532 26.008 -115.328 24.488 C-113.508 22.449 -111.377 21.313 -109 20 C-107.151 18.349 -106.109 17.218 -105 15 C-104.01 15.66 -103.02 16.32 -102 17 C-102 16.34 -102 15.68 -102 15 C-100.68 14.67 -99.36 14.34 -98 14 C-98 13.34 -98 12.68 -98 12 C-95.36 11.34 -92.72 10.68 -90 10 C-90 9.34 -90 8.68 -90 8 C-86.38 6.684 -83.904 6 -80 6 C-80 5.34 -80 4.68 -80 4 C-75.88 2.708 -72.332 1.737 -68 2 C-68 1.34 -68 0.68 -68 0 C-45.331 -4.388 -22.669 -4.388 0 0 Z M-128 35 C-128.33 35.66 -128.66 36.32 -129 37 C-128.34 37 -127.68 37 -127 37 C-127.33 36.34 -127.66 35.68 -128 35 Z M59 35 C59 35.66 59 36.32 59 37 C59.66 36.67 60.32 36.34 61 36 C60.34 35.67 59.68 35.34 59 35 Z M-137 46 C-136 48 -136 48 -136 48 Z M68 46 C69 48 69 48 69 48 Z M-148 62 C-148 62.66 -148 63.32 -148 64 C-147.34 64 -146.68 64 -146 64 C-146 63.34 -146 62.68 -146 62 C-146.66 62 -147.32 62 -148 62 Z M78 62 C78 62.66 78 63.32 78 64 C78.66 64 79.32 64 80 64 C80 63.34 80 62.68 80 62 C79.34 62 78.68 62 78 62 Z M-152 70 C-152 70.66 -152 71.32 -152 72 C-151.34 71.67 -150.68 71.34 -150 71 C-150.66 70.67 -151.32 70.34 -152 70 Z M83 70 C82.67 70.66 82.34 71.32 82 72 C82.66 72 83.32 72 84 72 C83.67 71.34 83.34 70.68 83 70 Z M-160 93 C-159 95 -159 95 -159 95 Z M91 93 C92 95 92 95 92 95 Z M-161 96 C-160 99 -160 99 -160 99 Z M92 96 C93 99 93 99 93 99 Z M-161 151 C-160 154 -160 154 -160 154 Z M92 151 C93 154 93 154 93 154 Z M-160 155 C-159 157 -159 157 -159 157 Z M91 155 C92 157 92 157 92 157 Z M-152 178 C-151.67 178.66 -151.34 179.32 -151 180 C-150.67 179.34 -150.34 178.68 -150 178 C-150.66 178 -151.32 178 -152 178 Z M82 178 C82.66 178.66 83.32 179.32 84 180 C84 179.34 84 178.68 84 178 C83.34 178 82.68 178 82 178 Z M-148 186 C-148 186.66 -148 187.32 -148 188 C-147.34 188 -146.68 188 -146 188 C-146 187.34 -146 186.68 -146 186 C-146.66 186 -147.32 186 -148 186 Z M78 186 C78 186.66 78 187.32 78 188 C78.66 188 79.32 188 80 188 C80 187.34 80 186.68 80 186 C79.34 186 78.68 186 78 186 Z M-137 202 C-136 204 -136 204 -136 204 Z M68 202 C69 204 69 204 69 204 Z M-129 213 C-128.34 213.66 -127.68 214.32 -127 215 C-127 214.34 -127 213.68 -127 213 C-127.66 213 -128.32 213 -129 213 Z M59 213 C59.33 213.66 59.66 214.32 60 215 C60.33 214.34 60.66 213.68 61 213 C60.34 213 59.68 213 59 213 Z " fill="#2D74B5" transform="translate(162,3)"/>
<path d="M0 0 C1.297 0.008 1.297 0.008 2.621 0.016 C25.333 0.984 47.628 15.875 62.734 31.832 C66 35.602 66 35.602 66 38 C66.99 38.33 67.98 38.66 69 39 C71.662 42.805 73.8 46.914 76 51 C76.596 52.071 76.596 52.071 77.203 53.164 C86.523 71.731 87.062 96.994 81.199 116.598 C77.923 125.893 73.899 134.447 69 143 C68.34 143 67.68 143 67 143 C66.799 143.686 66.598 144.372 66.391 145.078 C64.506 149.037 61.846 151.687 58.75 154.75 C58.127 155.366 57.505 155.982 56.863 156.617 C46.978 166.124 35.765 172.182 23 177 C22.02 177.383 21.041 177.766 20.031 178.16 C17 179 17 179 10 179 C10 153.59 10 128.18 10 102 C33.25 101.563 33.25 101.563 40.575 101.432 C42.493 101.394 44.41 101.355 46.328 101.316 C47.322 101.3 48.317 101.283 49.341 101.266 C50.295 101.246 51.249 101.226 52.231 101.205 C53.058 101.19 53.884 101.174 54.735 101.158 C56.936 101.004 58.883 100.606 61 100 C62 95.807 62.198 91.805 62.25 87.5 C62.276 86.211 62.302 84.922 62.328 83.594 C61.957 79.527 61.789 77.985 59 75 C55.347 74.206 51.714 74.279 47.988 74.293 C46.363 74.27 46.363 74.27 44.705 74.247 C41.241 74.204 37.777 74.195 34.312 74.188 C31.965 74.164 29.618 74.139 27.271 74.111 C21.514 74.044 15.759 74.023 10 74 C10 58.82 10 43.64 10 28 C8.35 27.34 6.7 26.68 5 26 C4.34 25.67 3.68 25.34 3 25 C-0.432 24.76 -3.873 24.815 -7.312 24.812 C-8.739 24.794 -8.739 24.794 -10.193 24.775 C-11.116 24.773 -12.038 24.772 -12.988 24.77 C-13.829 24.765 -14.67 24.761 -15.536 24.757 C-18.51 24.935 -18.51 24.935 -23 27 C-23.33 42.51 -23.66 58.02 -24 74 C-33.24 74.33 -42.48 74.66 -52 75 C-55.075 83.199 -56.839 89.363 -53.562 97.625 C-52.205 99.862 -52.205 99.862 -51 101 C-37.635 101.495 -37.635 101.495 -24 102 C-24 127.41 -24 152.82 -24 179 C-26.97 178.67 -29.94 178.34 -33 178 C-33 177.34 -33 176.68 -33 176 C-34.237 175.845 -34.237 175.845 -35.5 175.688 C-41.774 174.455 -47.349 171.967 -53 169 C-53 168.34 -53 167.68 -53 167 C-55.97 166.01 -55.97 166.01 -59 165 C-59 164.34 -59 163.68 -59 163 C-60.071 162.66 -60.071 162.66 -61.164 162.312 C-69.719 158.353 -77.405 148.015 -82 140 C-82 139.34 -82 138.68 -82 138 C-82.66 138 -83.32 138 -84 138 C-89.556 126.478 -89.556 126.478 -90 121 C-90.66 121 -91.32 121 -92 121 C-99.404 97.269 -97.958 72.363 -87 50 C-76.853 30.689 -60.422 14.621 -39.875 6.812 C-37 6 -37 6 -33 6 C-33 5.34 -33 4.68 -33 4 C-31.61 3.801 -31.61 3.801 -30.191 3.598 C-28.994 3.421 -27.796 3.244 -26.562 3.062 C-25.368 2.888 -24.173 2.714 -22.941 2.535 C-20.12 2.31 -20.12 2.31 -19 1 C-12.687 -0.263 -6.416 -0.162 0 0 Z " fill="#FCFDFE" transform="translate(144,39)"/>
<path d="M0 0 C0 0.66 0 1.32 0 2 C0.615 2.061 1.23 2.121 1.863 2.184 C2.672 2.267 3.48 2.351 4.312 2.438 C5.113 2.519 5.914 2.6 6.738 2.684 C9 3 9 3 12 4 C12 4.66 12 5.32 12 6 C13.093 6.144 14.186 6.289 15.312 6.438 C19 7 19 7 22 8 C22 8.66 22 9.32 22 10 C24.64 10.66 27.28 11.32 30 12 C30 12.66 30 13.32 30 14 C31.32 14.33 32.64 14.66 34 15 C34 15.66 34 16.32 34 17 C35.32 16.34 36.64 15.68 38 15 C38 15.99 38 16.98 38 18 C40.633 20.419 42.594 21.865 46 23 C47.207 24.454 47.207 24.454 48.438 25.938 C50.676 28.613 51.825 29.824 55 31 C55 31.66 55 32.32 55 33 C56.65 33 58.3 33 60 33 C60.99 34.98 60.99 34.98 62 37 C62.66 37 63.32 37 64 37 C64.33 38.65 64.66 40.3 65 42 C65.99 42 66.98 42 68 42 C70 45 70 45 70 49 C71.32 49.33 72.64 49.66 74 50 C74 50.99 74 51.98 74 53 C74.99 53.33 75.98 53.66 77 54 C78.187 57.562 78.187 57.562 79 61 C79.33 60.34 79.66 59.68 80 59 C81.422 62.317 82.39 65.442 83 69 C83.33 68.34 83.66 67.68 84 67 C86.229 71.327 85.925 74.284 85 79 C85.66 79 86.32 79 87 79 C87.33 77.68 87.66 76.36 88 75 C89.975 79.938 90.262 83.763 90 89 C89.67 89.66 89.34 90.32 89 91 C89.66 91 90.32 91 91 91 C91 89.02 91 87.04 91 85 C91.33 85 91.66 85 92 85 C93.999 92.955 94.293 100.574 94.266 108.75 C94.268 110.044 94.269 111.338 94.271 112.671 C94.274 115.394 94.27 118.117 94.261 120.84 C94.249 124.303 94.256 127.765 94.268 131.228 C94.277 134.569 94.271 137.909 94.266 141.25 C94.27 142.479 94.274 143.709 94.278 144.976 C94.241 151.889 93.687 158.287 92 165 C91.67 165 91.34 165 91 165 C91 163.02 91 161.04 91 159 C90.34 159 89.68 159 89 159 C89.186 159.681 89.371 160.361 89.562 161.062 C90.308 166.068 89.616 170.64 87 175 C87 173.68 87 172.36 87 171 C86.34 171 85.68 171 85 171 C85.206 172.052 85.412 173.104 85.625 174.188 C86 177.996 85.716 179.668 84 183 C83.67 182.34 83.34 181.68 83 181 C82.876 181.722 82.752 182.444 82.625 183.188 C82.01 185.957 81.116 188.397 80 191 C79.67 190.34 79.34 189.68 79 189 C78.01 191.64 77.02 194.28 76 197 C75.34 197 74.68 197 74 197 C73.845 197.959 73.845 197.959 73.688 198.938 C73.461 199.618 73.234 200.299 73 201 C72.01 201.33 71.02 201.66 70 202 C69.328 203.936 69.328 203.936 69 206 C68.67 206.66 68.34 207.32 68 208 C67.01 208.33 66.02 208.66 65 209 C64.267 211.015 64.267 211.015 64 213 C63.34 213 62.68 213 62 213 C61.34 214.32 60.68 215.64 60 217 C58.35 217 56.7 217 55 217 C54.67 217.99 54.34 218.98 54 220 C53.01 220.33 52.02 220.66 51 221 C49.765 222.495 48.532 223.992 47.328 225.512 C45.508 227.551 43.377 228.687 41 230 C39.151 231.651 38.109 232.782 37 235 C36.01 234.34 35.02 233.68 34 233 C34 233.66 34 234.32 34 235 C32.68 235.33 31.36 235.66 30 236 C30 236.66 30 237.32 30 238 C27.36 238.66 24.72 239.32 22 240 C22 240.66 22 241.32 22 242 C18.38 243.316 15.904 244 12 244 C12 244.66 12 245.32 12 246 C7.88 247.292 4.332 248.263 0 248 C0 248.66 0 249.32 0 250 C-22.669 254.388 -45.331 254.388 -68 250 C-68 249.34 -68 248.68 -68 248 C-68.615 247.939 -69.23 247.879 -69.863 247.816 C-70.672 247.733 -71.48 247.649 -72.312 247.562 C-73.513 247.441 -73.513 247.441 -74.738 247.316 C-77 247 -77 247 -80 246 C-80 245.34 -80 244.68 -80 244 C-81.093 243.856 -82.186 243.711 -83.312 243.562 C-87 243 -87 243 -90 242 C-90 241.34 -90 240.68 -90 240 C-92.64 239.34 -95.28 238.68 -98 238 C-98 237.34 -98 236.68 -98 236 C-99.32 235.67 -100.64 235.34 -102 235 C-102 234.34 -102 233.68 -102 233 C-103.98 233.99 -103.98 233.99 -106 235 C-106 234.01 -106 233.02 -106 232 C-108.633 229.581 -110.594 228.135 -114 227 C-114.804 226.031 -115.609 225.061 -116.438 224.062 C-118.676 221.387 -119.825 220.176 -123 219 C-123 218.34 -123 217.68 -123 217 C-124.65 217 -126.3 217 -128 217 C-128.99 215.02 -128.99 215.02 -130 213 C-130.66 213 -131.32 213 -132 213 C-132.33 211.35 -132.66 209.7 -133 208 C-133.99 208 -134.98 208 -136 208 C-138 205 -138 205 -138 201 C-139.32 200.67 -140.64 200.34 -142 200 C-142 199.01 -142 198.02 -142 197 C-142.99 196.67 -143.98 196.34 -145 196 C-146.188 192.438 -146.188 192.438 -147 189 C-147.495 189.99 -147.495 189.99 -148 191 C-149.422 187.683 -150.39 184.558 -151 181 C-151.495 181.99 -151.495 181.99 -152 183 C-154.229 178.673 -153.925 175.716 -153 171 C-152.67 171.99 -152.34 172.98 -152 174 C-151.34 174 -150.68 174 -150 174 C-149.608 174.99 -149.216 175.98 -148.812 177 C-147.245 180.701 -145.213 183.961 -142.988 187.301 C-142 189 -142 189 -142 191 C-141.34 191 -140.68 191 -140 191 C-138.852 192.609 -138.852 192.609 -137.625 194.75 C-135.683 197.979 -133.754 200.408 -131 203 C-129.847 204.327 -128.702 205.661 -127.562 207 C-124.917 210.052 -122.218 212.545 -119 215 C-118.154 215.866 -117.309 216.732 -116.438 217.625 C-114.298 219.71 -112.729 220.888 -110 222 C-110 222.66 -110 223.32 -110 224 C-109.051 224.309 -108.102 224.619 -107.125 224.938 C-104 226 -104 226 -102 227 C-102 227.66 -102 228.32 -102 229 C-101.051 229.227 -100.102 229.454 -99.125 229.688 C-95.045 230.841 -91.454 232.696 -87.723 234.684 C-66.302 245.04 -34.776 245.787 -12.312 238.625 C-10.87 238.097 -9.433 237.554 -8 237 C-6.043 236.267 -4.085 235.538 -2.125 234.812 C-1.22 234.468 -0.315 234.124 0.617 233.77 C3 233 3 233 6 233 C6 232.34 6 231.68 6 231 C8.906 229.743 10.796 229 14 229 C14 228.34 14 227.68 14 227 C15.52 225.955 17.095 224.992 18.688 224.062 C32.893 215.25 44.467 203.802 53.083 189.469 C54.007 187.949 54.998 186.47 56 185 C56.66 185 57.32 185 58 185 C58.34 183.608 58.34 183.608 58.688 182.188 C59.632 178.866 60.928 175.821 62.375 172.688 C62.813 171.735 63.252 170.782 63.703 169.801 C64.497 168.086 65.298 166.374 66.109 164.668 C73.253 148.539 72.654 130.279 73 113 C72.34 113 71.68 113 71 113 C70.87 112.031 70.87 112.031 70.738 111.043 C68.729 97.571 66.178 84.076 58.648 72.543 C54 65.372 54 65.372 54 62 C53.34 62 52.68 62 52 62 C50.668 60.207 50.668 60.207 49.188 57.812 C46.77 54.06 44.247 51.084 41 48 C40.142 46.92 39.288 45.836 38.438 44.75 C32.948 38.253 25.485 33.426 18.25 29.062 C17.178 28.382 16.105 27.701 15 27 C15 26.34 15 25.68 15 25 C14.237 24.856 13.474 24.711 12.688 24.562 C10 24 10 24 7 23 C7 22.34 7 21.68 7 21 C6.385 20.879 5.77 20.758 5.137 20.633 C4.328 20.465 3.52 20.298 2.688 20.125 C1.887 19.963 1.086 19.8 0.262 19.633 C-2 19 -2 19 -5 17 C-7.275 16.334 -7.275 16.334 -9.688 15.875 C-10.496 15.707 -11.304 15.54 -12.137 15.367 C-12.752 15.246 -13.366 15.125 -14 15 C-14 14.34 -14 13.68 -14 13 C-20.93 12.505 -20.93 12.505 -28 12 C-28 11.34 -28 10.68 -28 10 C-38.56 10 -49.12 10 -60 10 C-60 10.66 -60 11.32 -60 12 C-61.359 12.164 -61.359 12.164 -62.746 12.332 C-69.848 13.256 -76.345 14.369 -83 17 C-84.271 17.486 -85.542 17.971 -86.812 18.457 C-88.188 18.991 -89.563 19.526 -90.938 20.062 C-91.601 20.32 -92.265 20.577 -92.949 20.843 C-95.774 21.971 -97.826 22.826 -100 25 C-100.99 25 -101.98 25 -103 25 C-103 25.66 -103 26.32 -103 27 C-105.117 28.508 -105.117 28.508 -107.875 30.125 C-108.78 30.664 -109.685 31.203 -110.617 31.758 C-113 33 -113 33 -115 33 C-115 33.66 -115 34.32 -115 35 C-116.475 36.264 -118.007 37.461 -119.562 38.625 C-123.815 41.919 -127.271 45.338 -130.625 49.531 C-131.079 50.016 -131.532 50.501 -132 51 C-132.66 51 -133.32 51 -134 51 C-134.248 51.516 -134.495 52.031 -134.75 52.562 C-136.396 55.772 -138.198 58.876 -140 62 C-140.66 62 -141.32 62 -142 62 C-142.272 62.713 -142.544 63.426 -142.824 64.16 C-144.008 67.019 -145.373 69.699 -146.812 72.438 C-154.413 87.528 -159.142 103.531 -159.168 120.445 C-159.171 121.219 -159.175 121.992 -159.178 122.789 C-159.183 124.411 -159.185 126.033 -159.185 127.655 C-159.188 130.125 -159.206 132.596 -159.225 135.066 C-159.228 136.651 -159.23 138.236 -159.23 139.82 C-159.238 140.552 -159.245 141.283 -159.252 142.037 C-159.233 146.427 -158.526 149.901 -157 154 C-156.875 156.875 -156.875 156.875 -157 159 C-157.66 159 -158.32 159 -159 159 C-159 160.98 -159 162.96 -159 165 C-159.33 165 -159.66 165 -160 165 C-161.999 157.045 -162.293 149.426 -162.266 141.25 C-162.268 139.956 -162.269 138.662 -162.271 137.329 C-162.274 134.606 -162.27 131.883 -162.261 129.16 C-162.249 125.697 -162.256 122.235 -162.268 118.772 C-162.277 115.431 -162.271 112.091 -162.266 108.75 C-162.27 107.521 -162.274 106.291 -162.278 105.024 C-162.241 98.111 -161.687 91.713 -160 85 C-159.67 85 -159.34 85 -159 85 C-159 86.98 -159 88.96 -159 91 C-158.34 91 -157.68 91 -157 91 C-157.186 90.319 -157.371 89.639 -157.562 88.938 C-158.308 83.932 -157.616 79.36 -155 75 C-155 76.32 -155 77.64 -155 79 C-154.34 79 -153.68 79 -153 79 C-153.206 77.948 -153.412 76.896 -153.625 75.812 C-154 72.004 -153.716 70.332 -152 67 C-151.67 67.66 -151.34 68.32 -151 69 C-150.876 68.278 -150.752 67.556 -150.625 66.812 C-150.01 64.043 -149.116 61.603 -148 59 C-147.67 59.66 -147.34 60.32 -147 61 C-146.01 58.36 -145.02 55.72 -144 53 C-143.34 53 -142.68 53 -142 53 C-141.897 52.361 -141.794 51.721 -141.688 51.062 C-141.461 50.382 -141.234 49.701 -141 49 C-139.515 48.505 -139.515 48.505 -138 48 C-137.328 46.064 -137.328 46.064 -137 44 C-136 42 -136 42 -133 41 C-132.267 38.985 -132.267 38.985 -132 37 C-131.34 37 -130.68 37 -130 37 C-129.34 35.68 -128.68 34.36 -128 33 C-126.35 33 -124.7 33 -123 33 C-122.67 32.01 -122.34 31.02 -122 30 C-121.01 29.67 -120.02 29.34 -119 29 C-117.765 27.505 -116.532 26.008 -115.328 24.488 C-113.508 22.449 -111.377 21.313 -109 20 C-107.151 18.349 -106.109 17.218 -105 15 C-104.01 15.66 -103.02 16.32 -102 17 C-102 16.34 -102 15.68 -102 15 C-100.68 14.67 -99.36 14.34 -98 14 C-98 13.34 -98 12.68 -98 12 C-95.36 11.34 -92.72 10.68 -90 10 C-90 9.34 -90 8.68 -90 8 C-86.38 6.684 -83.904 6 -80 6 C-80 5.34 -80 4.68 -80 4 C-75.88 2.708 -72.332 1.737 -68 2 C-68 1.34 -68 0.68 -68 0 C-45.331 -4.388 -22.669 -4.388 0 0 Z M-128 35 C-128.33 35.66 -128.66 36.32 -129 37 C-128.34 37 -127.68 37 -127 37 C-127.33 36.34 -127.66 35.68 -128 35 Z M59 35 C59 35.66 59 36.32 59 37 C59.66 36.67 60.32 36.34 61 36 C60.34 35.67 59.68 35.34 59 35 Z M-137 46 C-136 48 -136 48 -136 48 Z M68 46 C69 48 69 48 69 48 Z M-148 62 C-148 62.66 -148 63.32 -148 64 C-147.34 64 -146.68 64 -146 64 C-146 63.34 -146 62.68 -146 62 C-146.66 62 -147.32 62 -148 62 Z M78 62 C78 62.66 78 63.32 78 64 C78.66 64 79.32 64 80 64 C80 63.34 80 62.68 80 62 C79.34 62 78.68 62 78 62 Z M-152 70 C-152 70.66 -152 71.32 -152 72 C-151.34 71.67 -150.68 71.34 -150 71 C-150.66 70.67 -151.32 70.34 -152 70 Z M83 70 C82.67 70.66 82.34 71.32 82 72 C82.66 72 83.32 72 84 72 C83.67 71.34 83.34 70.68 83 70 Z M-160 93 C-159 95 -159 95 -159 95 Z M91 93 C92 95 92 95 92 95 Z M-161 96 C-160 99 -160 99 -160 99 Z M92 96 C93 99 93 99 93 99 Z M-161 151 C-160 154 -160 154 -160 154 Z M92 151 C93 154 93 154 93 154 Z M-160 155 C-159 157 -159 157 -159 157 Z M91 155 C92 157 92 157 92 157 Z M-152 178 C-151.67 178.66 -151.34 179.32 -151 180 C-150.67 179.34 -150.34 178.68 -150 178 C-150.66 178 -151.32 178 -152 178 Z M82 178 C82.66 178.66 83.32 179.32 84 180 C84 179.34 84 178.68 84 178 C83.34 178 82.68 178 82 178 Z M-148 186 C-148 186.66 -148 187.32 -148 188 C-147.34 188 -146.68 188 -146 188 C-146 187.34 -146 186.68 -146 186 C-146.66 186 -147.32 186 -148 186 Z M78 186 C78 186.66 78 187.32 78 188 C78.66 188 79.32 188 80 188 C80 187.34 80 186.68 80 186 C79.34 186 78.68 186 78 186 Z M-137 202 C-136 204 -136 204 -136 204 Z M68 202 C69 204 69 204 69 204 Z M-129 213 C-128.34 213.66 -127.68 214.32 -127 215 C-127 214.34 -127 213.68 -127 213 C-127.66 213 -128.32 213 -129 213 Z M59 213 C59.33 213.66 59.66 214.32 60 215 C60.33 214.34 60.66 213.68 61 213 C60.34 213 59.68 213 59 213 Z " fill="#0C60A8" transform="translate(162,3)"/>
<path d="M0 0 C0.99 0.66 1.98 1.32 3 2 C3.323 3.949 3.323 3.949 3.249 6.358 C3.229 7.259 3.208 8.159 3.187 9.088 C3.15 10.062 3.113 11.036 3.074 12.039 C3.048 13.035 3.021 14.031 2.994 15.057 C2.906 18.247 2.797 21.436 2.688 24.625 C2.624 26.784 2.562 28.943 2.502 31.102 C2.353 36.402 2.176 41.7 2 47 C-6.91 47 -15.82 47 -25 47 C-25 46.67 -25 46.34 -25 46 C-17.08 46 -9.16 46 -1 46 C-1.012 42.763 -1.023 39.526 -1.035 36.191 C-1.043 33.071 -1.049 29.95 -1.055 26.829 C-1.06 24.653 -1.067 22.477 -1.075 20.302 C-1.088 17.181 -1.093 14.061 -1.098 10.941 C-1.103 9.962 -1.108 8.983 -1.113 7.974 C-1.113 7.073 -1.113 6.173 -1.114 5.244 C-1.116 4.447 -1.118 3.65 -1.12 2.829 C-1 1 -1 1 0 0 Z " fill="#EEF4F9" transform="translate(118,66)"/>
<path d="M0 0 C0.33 0 0.66 0 1 0 C1 1.98 1 3.96 1 6 C1.66 6 2.32 6 3 6 C3 7.65 3 9.3 3 11 C2.34 11 1.68 11 1 11 C0.949 18.296 0.914 25.591 0.89 32.887 C0.88 35.368 0.866 37.849 0.849 40.331 C0.825 43.9 0.814 47.469 0.805 51.039 C0.794 52.146 0.784 53.252 0.773 54.392 C0.773 59.703 0.959 64.014 3 69 C3.125 71.875 3.125 71.875 3 74 C2.34 74 1.68 74 1 74 C1 75.98 1 77.96 1 80 C0.67 80 0.34 80 0 80 C-1.999 72.045 -2.293 64.426 -2.266 56.25 C-2.268 54.956 -2.269 53.662 -2.271 52.329 C-2.274 49.606 -2.27 46.883 -2.261 44.16 C-2.249 40.697 -2.256 37.235 -2.268 33.772 C-2.277 30.431 -2.271 27.091 -2.266 23.75 C-2.27 22.521 -2.274 21.291 -2.278 20.024 C-2.241 13.111 -1.687 6.713 0 0 Z M0 8 C1 10 1 10 1 10 Z M-1 11 C0 14 0 14 0 14 Z M-1 66 C0 69 0 69 0 69 Z M0 70 C1 72 1 72 1 72 Z " fill="#1265AA" transform="translate(2,88)"/>
<path d="M0 0 C0.495 0.99 0.495 0.99 1 2 C0.34 2 -0.32 2 -1 2 C-0.985 2.574 -0.971 3.148 -0.955 3.74 C-0.803 9.692 -0.659 15.645 -0.518 21.598 C-0.464 23.823 -0.409 26.047 -0.352 28.271 C-0.27 31.461 -0.195 34.65 -0.121 37.84 C-0.094 38.841 -0.067 39.842 -0.039 40.873 C-0.019 41.794 0.001 42.715 0.022 43.664 C0.042 44.479 0.062 45.294 0.082 46.133 C0 48 0 48 -1 49 C-3.29 49.159 -5.584 49.251 -7.879 49.316 C-8.566 49.337 -9.252 49.358 -9.96 49.379 C-12.161 49.445 -14.361 49.504 -16.562 49.562 C-18.051 49.606 -19.54 49.649 -21.029 49.693 C-24.686 49.801 -28.343 49.902 -32 50 C-31.67 49.34 -31.34 48.68 -31 48 C-21.76 48 -12.52 48 -3 48 C-3.035 44.786 -3.07 41.573 -3.105 38.262 C-3.129 35.154 -3.147 32.046 -3.165 28.939 C-3.18 26.777 -3.2 24.614 -3.226 22.452 C-3.263 19.347 -3.28 16.242 -3.293 13.137 C-3.308 12.168 -3.324 11.199 -3.34 10.201 C-3.34 9.3 -3.34 8.399 -3.341 7.471 C-3.347 6.679 -3.354 5.886 -3.361 5.069 C-2.914 2.508 -1.972 1.627 0 0 Z " fill="#4B88BF" transform="translate(123,65)"/>
<path d="M0 0 C0.66 0 1.32 0 2 0 C2.027 2.771 2.047 5.542 2.062 8.312 C2.071 9.098 2.079 9.884 2.088 10.693 C2.091 11.451 2.094 12.208 2.098 12.988 C2.103 13.685 2.108 14.381 2.114 15.099 C2 17 2 17 1 20 C1.66 20 2.32 20 3 20 C3.864 17.407 4.176 15.66 4.316 12.988 C4.358 12.231 4.4 11.474 4.443 10.693 C4.483 9.908 4.522 9.122 4.562 8.312 C4.606 7.515 4.649 6.718 4.693 5.896 C4.799 3.931 4.9 1.966 5 0 C5.33 0 5.66 0 6 0 C6.199 21.009 6.199 21.009 5 30 C4.01 29.34 3.02 28.68 2 28 C1.01 28 0.02 28 -1 28 C-1.049 28.71 -1.098 29.421 -1.148 30.152 C-1.223 31.071 -1.298 31.991 -1.375 32.938 C-1.445 33.854 -1.514 34.771 -1.586 35.715 C-1.723 36.469 -1.859 37.223 -2 38 C-2.99 38.495 -2.99 38.495 -4 39 C-3.795 38.112 -3.59 37.224 -3.379 36.309 C-0.834 24.24 -0.293 12.31 0 0 Z " fill="#3C7EBA" transform="translate(228,120)"/>
<path d="M0 0 C8.58 0 17.16 0 26 0 C26 25.41 26 50.82 26 77 C23.03 76.67 20.06 76.34 17 76 C17 75.34 17 74.68 17 74 C19.64 74 22.28 74 25 74 C25 49.91 25 25.82 25 1 C16.75 1 8.5 1 0 1 C0 0.67 0 0.34 0 0 Z " fill="#E5EEF5" transform="translate(94,141)"/>
<path d="M0 0 C0.33 0.99 0.66 1.98 1 3 C1.66 3 2.32 3 3 3 C3.392 3.99 3.784 4.98 4.188 6 C5.755 9.701 7.787 12.961 10.012 16.301 C11 18 11 18 11 20 C11.66 20 12.32 20 13 20 C14.389 21.961 15.726 23.962 17 26 C16.67 26.66 16.34 27.32 16 28 C14.855 27.536 14.855 27.536 13.688 27.062 C11.812 26.321 9.913 25.638 8 25 C6.812 21.438 6.812 21.438 6 18 C5.67 18.66 5.34 19.32 5 20 C3.578 16.683 2.61 13.558 2 10 C1.67 10.66 1.34 11.32 1 12 C-1.229 7.673 -0.925 4.716 0 0 Z M1 7 C1.33 7.66 1.66 8.32 2 9 C2.33 8.34 2.66 7.68 3 7 C2.34 7 1.68 7 1 7 Z M5 15 C5 15.66 5 16.32 5 17 C5.66 17 6.32 17 7 17 C7 16.34 7 15.68 7 15 C6.34 15 5.68 15 5 15 Z " fill="#0867AA" transform="translate(9,174)"/>
<path d="M0 0 C0.33 0 0.66 0 1 0 C1 1.98 1 3.96 1 6 C1.66 6 2.32 6 3 6 C3 7.65 3 9.3 3 11 C2.34 11 1.68 11 1 11 C0.67 16.28 0.34 21.56 0 27 C-0.66 26.67 -1.32 26.34 -2 26 C-2.199 17.105 -2.334 8.671 0 0 Z M0 8 C1 10 1 10 1 10 Z M-1 11 C0 14 0 14 0 14 Z " fill="#0559A9" transform="translate(2,88)"/>
<path d="M0 0 C2.97 0.99 5.94 1.98 9 3 C9 3.99 9 4.98 9 6 C8.34 6 7.68 6 7 6 C7 6.99 7 7.98 7 9 C7.66 9.33 8.32 9.66 9 10 C8.01 10 7.02 10 6 10 C6 9.34 6 8.68 6 8 C4.68 7.67 3.36 7.34 2 7 C2 6.34 2 5.68 2 5 C0.02 5.99 0.02 5.99 -2 7 C-1.67 6.402 -1.34 5.804 -1 5.188 C0.208 2.946 0.208 2.946 0 0 Z " fill="#0B5599" transform="translate(58,231)"/>
<path d="M0 0 C0 0.99 0 1.98 0 3 C0.99 3.33 1.98 3.66 3 4 C2.67 6.64 2.34 9.28 2 12 C1.67 11.01 1.34 10.02 1 9 C0.01 8.67 -0.98 8.34 -2 8 C-2 7.01 -2 6.02 -2 5 C-2.99 4.67 -3.98 4.34 -5 4 C-5.688 1.938 -5.688 1.938 -6 0 C-2.25 -1.125 -2.25 -1.125 0 0 Z " fill="#0769B8" transform="translate(236,53)"/>
<path d="M0 0 C2.62 4.866 4.328 9.419 4 15 C3.34 15 2.68 15 2 15 C2 16.98 2 18.96 2 21 C1.67 21 1.34 21 1 21 C-2.262 6.786 -2.262 6.786 0 0 Z M0 7 C1 10 1 10 1 10 Z M1 11 C2 13 2 13 2 13 Z " fill="#0958A8" transform="translate(1,147)"/>
<path d="M0 0 C1.32 0.66 2.64 1.32 4 2 C4 2.66 4 3.32 4 4 C4.66 4 5.32 4 6 4 C6.33 6.97 6.66 9.94 7 13 C3.65 11.883 3.207 11.253 1.312 8.438 C0.876 7.797 0.439 7.156 -0.012 6.496 C-0.338 6.002 -0.664 5.509 -1 5 C0 3 0 3 1 2 C0.67 1.34 0.34 0.68 0 0 Z " fill="#075896" transform="translate(220,36)"/>
<path d="M0 0 C0.99 0 1.98 0 3 0 C3 0.66 3 1.32 3 2 C3.66 2 4.32 2 5 2 C6.389 3.961 7.726 5.962 9 8 C8.67 8.66 8.34 9.32 8 10 C7.237 9.691 6.474 9.381 5.688 9.062 C3.812 8.321 1.913 7.638 0 7 C-0.381 5.009 -0.713 3.007 -1 1 C-0.67 0.67 -0.34 0.34 0 0 Z " fill="#0B6AB5" transform="translate(17,192)"/>
<path d="M0 0 C0.33 0 0.66 0 1 0 C1.369 5.528 0.286 9.966 -1.266 15.266 C-2.227 18.845 -2.652 22.314 -3 26 C-3.33 26 -3.66 26 -4 26 C-4.097 20.553 -4.129 15.361 -3 10 C-2.34 10 -1.68 10 -1 10 C-1.33 7.36 -1.66 4.72 -2 2 C-1.34 2 -0.68 2 0 2 C0 1.34 0 0.68 0 0 Z " fill="#136CB8" transform="translate(6,89)"/>
<path d="M0 0 C1 3 1 3 0.5 5.062 C-1.767 7.991 -4.489 8.22 -8 9 C-7.67 7.68 -7.34 6.36 -7 5 C-6.34 5 -5.68 5 -5 5 C-4.67 3.68 -4.34 2.36 -4 1 C-2.68 0.67 -1.36 0.34 0 0 Z " fill="#0669B9" transform="translate(25,51)"/>
<path d="M0 0 C0.33 1.32 0.66 2.64 1 4 C1.66 4 2.32 4 3 4 C3.33 6.64 3.66 9.28 4 12 C3.34 12 2.68 12 2 12 C1.67 13.32 1.34 14.64 1 16 C-0.975 11.062 -1.262 7.237 -1 2 C-0.67 1.34 -0.34 0.68 0 0 Z " fill="#0B5FB0" transform="translate(5,162)"/>
<path d="M0 0 C0.66 0.33 1.32 0.66 2 1 C1.34 1.66 0.68 2.32 0 3 C0.99 3 1.98 3 3 3 C2.67 4.32 2.34 5.64 2 7 C1.34 7 0.68 7 0 7 C-0.66 8.32 -1.32 9.64 -2 11 C-2.33 10.01 -2.66 9.02 -3 8 C-3.66 7.67 -4.32 7.34 -5 7 C-4.67 6.01 -4.34 5.02 -4 4 C-3.34 4 -2.68 4 -2 4 C-1.34 2.68 -0.68 1.36 0 0 Z " fill="#065690" transform="translate(34,36)"/>
<path d="M0 0 C2.645 1.322 2.978 2.645 4.188 5.312 C4.552 6.092 4.917 6.872 5.293 7.676 C6.078 10.257 5.899 11.497 5 14 C4.34 13.67 3.68 13.34 3 13 C3 12.01 3 11.02 3 10 C2.34 10 1.68 10 1 10 C1.33 8.35 1.66 6.7 2 5 C1.01 4.67 0.02 4.34 -1 4 C-0.67 2.68 -0.34 1.36 0 0 Z " fill="#D6E4F0" transform="translate(218,89)"/>
<path d="M0 0 C1.65 1.65 3.3 3.3 5 5 C4.01 5.495 4.01 5.495 3 6 C3 5.34 3 4.68 3 4 C2.01 4.33 1.02 4.66 0 5 C0.66 6.32 1.32 7.64 2 9 C0.68 8.34 -0.64 7.68 -2 7 C-2 6.34 -2 5.68 -2 5 C-2.66 5 -3.32 5 -4 5 C-4.33 3.68 -4.66 2.36 -5 1 C-2.525 1.495 -2.525 1.495 0 2 C0 1.34 0 0.68 0 0 Z " fill="#07538A" transform="translate(34,211)"/>
<path d="M0 0 C0 0.99 0 1.98 0 3 C-1.98 3 -3.96 3 -6 3 C-6 2.34 -6 1.68 -6 1 C-9.3 1 -12.6 1 -16 1 C-16 0.67 -16 0.34 -16 0 C-10.313 -0.914 -5.687 -0.914 0 0 Z " fill="#0C67B4" transform="translate(157,2)"/>
<path d="M0 0 C1.033 2.788 1.045 3.868 0.062 6.75 C-0.288 7.493 -0.639 8.235 -1 9 C-1.33 8.34 -1.66 7.68 -2 7 C-2.99 7 -3.98 7 -5 7 C-5.33 7.66 -5.66 8.32 -6 9 C-5.25 3.25 -5.25 3.25 -3 1 C-2.01 1.66 -1.02 2.32 0 3 C0 2.01 0 1.02 0 0 Z M-3 4 C-2.34 4.66 -1.68 5.32 -1 6 C-1 5.34 -1 4.68 -1 4 C-1.66 4 -2.32 4 -3 4 Z " fill="#066CB3" transform="translate(247,177)"/>
<path d="M0 0 C2.762 2.762 2.579 5.207 3 9 C2.01 8.34 1.02 7.68 0 7 C-0.99 7.495 -0.99 7.495 -2 8 C-2.66 5.69 -3.32 3.38 -4 1 C-2.68 1.33 -1.36 1.66 0 2 C0 1.34 0 0.68 0 0 Z M0 3 C-0.33 3.66 -0.66 4.32 -1 5 C-0.34 5 0.32 5 1 5 C0.67 4.34 0.34 3.68 0 3 Z " fill="#066DB1" transform="translate(245,70)"/>
<path d="M0 0 C0.825 0.165 1.65 0.33 2.5 0.5 C6.413 1.059 10.052 1.068 14 1 C14 1.33 14 1.66 14 2 C7.565 2.495 7.565 2.495 1 3 C1 3.66 1 4.32 1 5 C-0.32 4.67 -1.64 4.34 -3 4 C-2.67 3.34 -2.34 2.68 -2 2 C-1.34 2 -0.68 2 0 2 C0 1.34 0 0.68 0 0 Z " fill="#5E95C6" transform="translate(110,40)"/>
<path d="M0 0 C0.66 0 1.32 0 2 0 C3.289 1.426 3.289 1.426 4.625 3.312 C5.071 3.927 5.517 4.542 5.977 5.176 C7 7 7 7 7 10 C4.625 9.5 4.625 9.5 2 8 C0.918 5.335 0.507 2.859 0 0 Z " fill="#1165AF" transform="translate(27,203)"/>
<path d="M0 0 C1.32 0.66 2.64 1.32 4 2 C3.67 3.32 3.34 4.64 3 6 C2.34 6 1.68 6 1 6 C0.67 6.66 0.34 7.32 0 8 C-0.66 7.34 -1.32 6.68 -2 6 C-1.646 3.737 -1.025 2.049 0 0 Z " fill="#0757B0" transform="translate(26,45)"/>
<path d="M0 0 C0.99 1.32 1.98 2.64 3 4 C2.01 4.33 1.02 4.66 0 5 C-0.049 5.71 -0.098 6.421 -0.148 7.152 C-0.223 8.071 -0.298 8.991 -0.375 9.938 C-0.479 11.312 -0.479 11.312 -0.586 12.715 C-0.723 13.469 -0.859 14.223 -1 15 C-1.99 15.495 -1.99 15.495 -3 16 C-2.01 10.72 -1.02 5.44 0 0 Z " fill="#5D94C6" transform="translate(227,143)"/>
<path d="M0 0 C2 2 2 2 2 5 C0.178 6.925 -1.892 8.375 -4 10 C-2.891 6.513 -1.737 3.225 0 0 Z " fill="#D7E4F0" transform="translate(59,85)"/>
<path d="M0 0 C0 0.66 0 1.32 0 2 C-4.455 2.495 -4.455 2.495 -9 3 C-9 2.34 -9 1.68 -9 1 C-5.804 -0.065 -3.343 -0.074 0 0 Z " fill="#EFF4F9" transform="translate(164,215)"/>
<path d="M0 0 C0.33 0 0.66 0 1 0 C1 1.98 1 3.96 1 6 C1.66 6 2.32 6 3 6 C2.67 7.32 2.34 8.64 2 10 C1.01 10 0.02 10 -1 10 C-0.67 6.7 -0.34 3.4 0 0 Z " fill="#044396" transform="translate(2,88)"/>
<path d="M0 0 C0.66 0 1.32 0 2 0 C2 0.66 2 1.32 2 2 C2.66 2.33 3.32 2.66 4 3 C-0.455 3.495 -0.455 3.495 -5 4 C-5 3.34 -5 2.68 -5 2 C-3.35 2 -1.7 2 0 2 C0 1.34 0 0.68 0 0 Z " fill="#0B67B3" transform="translate(94,3)"/>
<path d="M0 0 C0.33 0.66 0.66 1.32 1 2 C1.99 2 2.98 2 4 2 C4.33 1.34 4.66 0.68 5 0 C4.494 2.169 4 4 3 6 C1.68 5.34 0.36 4.68 -1 4 C-0.67 2.68 -0.34 1.36 0 0 Z " fill="#0554B1" transform="translate(227,205)"/>
<path d="M0 0 C1.062 1.875 1.062 1.875 2 4 C1.67 4.66 1.34 5.32 1 6 C1.66 6 2.32 6 3 6 C2.67 6.99 2.34 7.98 2 9 C2 8.34 2 7.68 2 7 C1.34 7 0.68 7 0 7 C-0.66 5.35 -1.32 3.7 -2 2 C-1.34 2 -0.68 2 0 2 C0 1.34 0 0.68 0 0 Z " fill="#DDE9F3" transform="translate(60,170)"/>
<path d="M0 0 C0.124 0.639 0.248 1.279 0.375 1.938 C0.684 2.958 0.684 2.958 1 4 C1.66 4.33 2.32 4.66 3 5 C2.67 5.66 2.34 6.32 2 7 C-0.31 5.35 -2.62 3.7 -5 2 C-2 0 -2 0 0 0 Z " fill="#518CC2" transform="translate(196,56)"/>
<path d="M0 0 C-0.33 0.99 -0.66 1.98 -1 3 C-4.3 3 -7.6 3 -11 3 C-6.99 0.327 -4.828 0 0 0 Z " fill="#226DB0" transform="translate(96,15)"/>
<path d="M0 0 C-2.31 0.33 -4.62 0.66 -7 1 C-3.375 -1.125 -3.375 -1.125 0 0 Z " fill="#004FB2" transform="translate(174,251)"/>
<path d="M0 0 C2.31 0.33 4.62 0.66 7 1 C7 1.33 7 1.66 7 2 C4.69 1.67 2.38 1.34 0 1 C0 0.67 0 0.34 0 0 Z " fill="#004FB2" transform="translate(82,250)"/>
<path d="M0 0 C2.31 0.33 4.62 0.66 7 1 C4 2 4 2 1.812 1.062 C1.214 0.712 0.616 0.361 0 0 Z " fill="#004FB2" transform="translate(167,4)"/>
<path d="M0 0 C-1.812 1.062 -1.812 1.062 -4 2 C-4.99 1.67 -5.98 1.34 -7 1 C-4.537 -0.231 -2.72 -0.072 0 0 Z " fill="#004FB2" transform="translate(89,4)"/>
<path d="M0 0 C2.31 0 4.62 0 7 0 C7 0.33 7 0.66 7 1 C4.69 1 2.38 1 0 1 C0 0.67 0 0.34 0 0 Z " fill="#00569F" transform="translate(151,255)"/>
<path d="M0 0 C2.31 0 4.62 0 7 0 C7 0.33 7 0.66 7 1 C4.69 1 2.38 1 0 1 C0 0.67 0 0.34 0 0 Z " fill="#00569F" transform="translate(98,255)"/>
<path d="M0 0 C2.31 0 4.62 0 7 0 C7 0.33 7 0.66 7 1 C4.69 1 2.38 1 0 1 C0 0.67 0 0.34 0 0 Z " fill="#00569F" transform="translate(151,0)"/>
<path d="M0 0 C2.31 0 4.62 0 7 0 C7 0.33 7 0.66 7 1 C4.69 1 2.38 1 0 1 C0 0.67 0 0.34 0 0 Z " fill="#00569F" transform="translate(98,0)"/>
<path d="M0 0 C1.98 0 3.96 0 6 0 C6 0.33 6 0.66 6 1 C4.02 1 2.04 1 0 1 C0 0.67 0 0.34 0 0 Z " fill="#00427B" transform="translate(162,253)"/>
<path d="M0 0 C1.98 0 3.96 0 6 0 C6 0.33 6 0.66 6 1 C4.02 1 2.04 1 0 1 C0 0.67 0 0.34 0 0 Z " fill="#00427B" transform="translate(88,253)"/>
<path d="M0 0 C1.98 0 3.96 0 6 0 C6 0.33 6 0.66 6 1 C4.02 1 2.04 1 0 1 C0 0.67 0 0.34 0 0 Z " fill="#00427B" transform="translate(162,2)"/>
<path d="M0 0 C1.98 0 3.96 0 6 0 C6 0.33 6 0.66 6 1 C4.02 1 2.04 1 0 1 C0 0.67 0 0.34 0 0 Z " fill="#00427B" transform="translate(88,2)"/>
<path d="M0 0 C0.66 0.33 1.32 0.66 2 1 C0.68 1.33 -0.64 1.66 -2 2 C-1.34 1.34 -0.68 0.68 0 0 Z " fill="#003BCE" transform="translate(202,234)"/>
<path d="M0 0 C1.98 0.99 1.98 0.99 4 2 C2.68 1.67 1.36 1.34 0 1 C0 0.67 0 0.34 0 0 Z " fill="#003BCE" transform="translate(52,234)"/>
<path d="M0 0 C0 0.99 0 1.98 0 3 C-0.66 2.67 -1.32 2.34 -2 2 C-1.34 1.34 -0.68 0.68 0 0 Z " fill="#0047EF" transform="translate(219,220)"/>
<path d="M0 0 C0.99 0.99 1.98 1.98 3 3 C2.01 2.67 1.02 2.34 0 2 C0 1.34 0 0.68 0 0 Z " fill="#0047EF" transform="translate(36,220)"/>
<path d="M0 0 C0.99 0.33 1.98 0.66 3 1 C2.67 1.66 2.34 2.32 2 3 C1.34 2.01 0.68 1.02 0 0 Z " fill="#0047EF" transform="translate(217,33)"/>
<path d="M0 0 C0.66 0.33 1.32 0.66 2 1 C1.01 1.66 0.02 2.32 -1 3 C-0.67 2.01 -0.34 1.02 0 0 Z " fill="#0047EF" transform="translate(37,33)"/>
<path d="M0 0 C1.32 0.33 2.64 0.66 4 1 C3.01 1.495 3.01 1.495 2 2 C1.34 1.34 0.68 0.68 0 0 Z " fill="#003BCE" transform="translate(200,20)"/>
<path d="M0 0 C0.99 0.33 1.98 0.66 3 1 C1.68 1.33 0.36 1.66 -1 2 C-0.67 1.34 -0.34 0.68 0 0 Z " fill="#003BCE" transform="translate(53,20)"/>
<path d="M0 0 C4 1 4 1 4 1 Z " fill="#006FB6" transform="translate(158,254)"/>
<path d="M0 0 C4 1 4 1 4 1 Z " fill="#006FB6" transform="translate(94,254)"/>
<path d="M0 0 C4 1 4 1 4 1 Z " fill="#005FBF" transform="translate(174,249)"/>
<path d="M0 0 C4 1 4 1 4 1 Z " fill="#005FBF" transform="translate(78,249)"/>
<path d="M0 0 C0.66 0 1.32 0 2 0 C2 0.66 2 1.32 2 2 C1.34 2 0.68 2 0 2 C0 1.34 0 0.68 0 0 Z " fill="#00259A" transform="translate(209,228)"/>
<path d="M0 0 C0.66 0 1.32 0 2 0 C2 0.66 2 1.32 2 2 C1.34 2 0.68 2 0 2 C0 1.34 0 0.68 0 0 Z " fill="#00259A" transform="translate(45,228)"/>
<path d="M0 0 C0.99 0.33 1.98 0.66 3 1 C2.01 1 1.02 1 0 1 C0 0.67 0 0.34 0 0 Z " fill="#0057DF" transform="translate(213,224)"/>
<path d="M0 0 C0.99 0.33 1.98 0.66 3 1 C2.01 1 1.02 1 0 1 C0 0.67 0 0.34 0 0 Z " fill="#0057DF" transform="translate(40,224)"/>
<path d="M0 0 C0.66 0.66 1.32 1.32 2 2 C1.01 1.67 0.02 1.34 -1 1 C-0.67 0.67 -0.34 0.34 0 0 Z " fill="#0057DF" transform="translate(214,30)"/>
<path d="M0 0 C0.66 0.66 1.32 1.32 2 2 C1.01 1.67 0.02 1.34 -1 1 C-0.67 0.67 -0.34 0.34 0 0 Z " fill="#0057DF" transform="translate(41,30)"/>
<path d="M0 0 C0.66 0 1.32 0 2 0 C2 0.66 2 1.32 2 2 C1.34 2 0.68 2 0 2 C0 1.34 0 0.68 0 0 Z " fill="#00259A" transform="translate(209,26)"/>
<path d="M0 0 C0.66 0 1.32 0 2 0 C2 0.66 2 1.32 2 2 C1.34 2 0.68 2 0 2 C0 1.34 0 0.68 0 0 Z " fill="#00259A" transform="translate(45,26)"/>
<path d="M0 0 C4 1 4 1 4 1 Z " fill="#005FBF" transform="translate(174,6)"/>
<path d="M0 0 C4 1 4 1 4 1 Z " fill="#005FBF" transform="translate(78,6)"/>
<path d="M0 0 C4 1 4 1 4 1 Z " fill="#006FB6" transform="translate(158,1)"/>
<path d="M0 0 C4 1 4 1 4 1 Z " fill="#006FB6" transform="translate(94,1)"/>
<path d="M0 0 C3 1 3 1 3 1 Z " fill="#005DAE" transform="translate(178,247)"/>
<path d="M0 0 C3 1 3 1 3 1 Z " fill="#005DAE" transform="translate(75,247)"/>
<path d="M0 0 C3 1 3 1 3 1 Z " fill="#009DCE" transform="translate(181,246)"/>
<path d="M0 0 C3 1 3 1 3 1 Z " fill="#009DCE" transform="translate(72,246)"/>
<path d="M0 0 C3 1 3 1 3 1 Z " fill="#005BAB" transform="translate(186,243)"/>
<path d="M0 0 C3 1 3 1 3 1 Z " fill="#005BAB" transform="translate(67,243)"/>
<path d="M0 0 C3 1 3 1 3 1 Z " fill="#007397" transform="translate(189,242)"/>
<path d="M0 0 C3 1 3 1 3 1 Z " fill="#007397" transform="translate(64,242)"/>
<path d="M0 0 C3 1 3 1 3 1 Z " fill="#004069" transform="translate(196,238)"/>
<path d="M0 0 C3 1 3 1 3 1 Z " fill="#004069" transform="translate(57,238)"/>
<path d="M0 0 C3 1 3 1 3 1 Z " fill="#005AAC" transform="translate(205,231)"/>
<path d="M0 0 C3 1 3 1 3 1 Z " fill="#005AAC" transform="translate(48,231)"/>
<path d="M0 0 C3 1 3 1 3 1 Z " fill="#005AAC" transform="translate(205,24)"/>
<path d="M0 0 C3 1 3 1 3 1 Z " fill="#005AAC" transform="translate(48,24)"/>
<path d="M0 0 C3 1 3 1 3 1 Z " fill="#004069" transform="translate(196,17)"/>
<path d="M0 0 C3 1 3 1 3 1 Z " fill="#004069" transform="translate(57,17)"/>
<path d="M0 0 C3 1 3 1 3 1 Z " fill="#007397" transform="translate(189,13)"/>
<path d="M0 0 C3 1 3 1 3 1 Z " fill="#007397" transform="translate(64,13)"/>
<path d="M0 0 C3 1 3 1 3 1 Z " fill="#005BAB" transform="translate(186,12)"/>
<path d="M0 0 C3 1 3 1 3 1 Z " fill="#005BAB" transform="translate(67,12)"/>
<path d="M0 0 C3 1 3 1 3 1 Z " fill="#009DCE" transform="translate(181,9)"/>
<path d="M0 0 C3 1 3 1 3 1 Z " fill="#009DCE" transform="translate(72,9)"/>
<path d="M0 0 C3 1 3 1 3 1 Z " fill="#005DAE" transform="translate(178,8)"/>
<path d="M0 0 C3 1 3 1 3 1 Z " fill="#005DAE" transform="translate(75,8)"/>
<path d="M0 0 C2 1 2 1 2 1 Z " fill="#006A94" transform="translate(184,245)"/>
<path d="M0 0 C2 1 2 1 2 1 Z " fill="#006A94" transform="translate(70,245)"/>
<path d="M0 0 C2 1 2 1 2 1 Z " fill="#007F7F" transform="translate(192,241)"/>
<path d="M0 0 C2 1 2 1 2 1 Z " fill="#007F7F" transform="translate(62,241)"/>
<path d="M0 0 C2 1 2 1 2 1 Z " fill="#005DA1" transform="translate(194,239)"/>
<path d="M0 0 C2 1 2 1 2 1 Z " fill="#005DA1" transform="translate(60,239)"/>
<path d="" fill="#005DA1" transform="translate(0,0)"/>
<path d="" fill="#005DA1" transform="translate(0,0)"/>
<path d="M0 0 C2 1 2 1 2 1 Z " fill="#0033D8" transform="translate(232,204)"/>
<path d="M0 0 C2 1 2 1 2 1 Z " fill="#0033D8" transform="translate(22,204)"/>
<path d="M0 0 C2 1 2 1 2 1 Z " fill="#0033D8" transform="translate(232,51)"/>
<path d="M0 0 C2 1 2 1 2 1 Z " fill="#0033D8" transform="translate(22,51)"/>
<path d="" fill="#005DA1" transform="translate(0,0)"/>
<path d="" fill="#005DA1" transform="translate(0,0)"/>
<path d="M0 0 C2 1 2 1 2 1 Z " fill="#005DA1" transform="translate(194,16)"/>
<path d="M0 0 C2 1 2 1 2 1 Z " fill="#005DA1" transform="translate(60,16)"/>
<path d="M0 0 C2 1 2 1 2 1 Z " fill="#007F7F" transform="translate(192,14)"/>
<path d="M0 0 C2 1 2 1 2 1 Z " fill="#007F7F" transform="translate(62,14)"/>
<path d="M0 0 C2 1 2 1 2 1 Z " fill="#006A94" transform="translate(184,10)"/>
<path d="M0 0 C2 1 2 1 2 1 Z " fill="#006A94" transform="translate(70,10)"/>
<path d="" fill="#003FBF" transform="translate(0,0)"/>
<path d="" fill="#003FBF" transform="translate(0,0)"/>
<path d="" fill="#006699" transform="translate(0,0)"/>
<path d="" fill="#006699" transform="translate(0,0)"/>
<path d="" fill="#006DB6" transform="translate(0,0)"/>
<path d="" fill="#006DB6" transform="translate(0,0)"/>
<path d="" fill="#004891" transform="translate(0,0)"/>
<path d="" fill="#004891" transform="translate(0,0)"/>
<path d="" fill="#006699" transform="translate(0,0)"/>
<path d="" fill="#006699" transform="translate(0,0)"/>
<path d="" fill="#006699" transform="translate(0,0)"/>
<path d="" fill="#006699" transform="translate(0,0)"/>
<path d="" fill="#004891" transform="translate(0,0)"/>
<path d="" fill="#004891" transform="translate(0,0)"/>
<path d="" fill="#006DB6" transform="translate(0,0)"/>
<path d="" fill="#006DB6" transform="translate(0,0)"/>
<path d="" fill="#006699" transform="translate(0,0)"/>
<path d="" fill="#006699" transform="translate(0,0)"/>
<path d="" fill="#003FBF" transform="translate(0,0)"/>
<path d="" fill="#003FBF" transform="translate(0,0)"/>
</svg>
